<?xml version="1.0" encoding="us-ascii" standalone="no"?><svg xmlns="http://www.w3.org/2000/svg" xmlns:xlink="http://www.w3.org/1999/xlink" contentStyleType="text/css" height="1984px" preserveAspectRatio="none" style="width:847px;height:1984px;background:#FFFFFF;" version="1.1" viewBox="0 0 847 1984" width="847px" zoomAndPan="magnify"><defs/><g><text fill="#000000" font-family="sans-serif" font-size="14" font-weight="bold" lengthAdjust="spacing" textLength="335" x="252.25" y="27.9951">AI Present Finder - Favorite Products Flow</text><rect fill="#FFFFFF" height="607.3984" style="stroke:#181818;stroke-width:1.0;" width="10" x="508" y="388.9219"/><rect fill="#FFFFFF" height="431.7969" style="stroke:#181818;stroke-width:1.0;" width="10" x="508" y="1075.7188"/><rect fill="#FFFFFF" height="29.1328" style="stroke:#181818;stroke-width:1.0;" width="10" x="772" y="556.7188"/><rect fill="#FFFFFF" height="29.1328" style="stroke:#181818;stroke-width:1.0;" width="10" x="772" y="614.9844"/><rect fill="#FFFFFF" height="29.1328" style="stroke:#181818;stroke-width:1.0;" width="10" x="772" y="673.25"/><rect fill="#FFFFFF" height="29.1328" style="stroke:#181818;stroke-width:1.0;" width="10" x="772" y="790.5859"/><rect fill="#FFFFFF" height="29.1328" style="stroke:#181818;stroke-width:1.0;" width="10" x="772" y="907.9219"/><rect fill="#FFFFFF" height="29.1328" style="stroke:#181818;stroke-width:1.0;" width="10" x="772" y="1243.5156"/><rect fill="#FFFFFF" height="29.1328" style="stroke:#181818;stroke-width:1.0;" width="10" x="772" y="1301.7813"/><rect fill="#FFFFFF" height="29.1328" style="stroke:#181818;stroke-width:1.0;" width="10" x="772" y="1419.1172"/><rect fill="none" height="470.8672" style="stroke:#000000;stroke-width:1.5;" width="820.5" x="10" y="518.4531"/><rect fill="none" height="295.2656" style="stroke:#000000;stroke-width:1.5;" width="818.5" x="12" y="1205.25"/><rect fill="none" height="206.7344" style="stroke:#000000;stroke-width:1.5;" width="621.5" x="209" y="1680.3125"/><line style="stroke:#181818;stroke-width:0.5;stroke-dasharray:5.0,5.0;" x1="238" x2="238" y1="118.5938" y2="1904.0469"/><line style="stroke:#181818;stroke-width:0.5;stroke-dasharray:5.0,5.0;" x1="512.5" x2="512.5" y1="118.5938" y2="1904.0469"/><line style="stroke:#181818;stroke-width:0.5;stroke-dasharray:5.0,5.0;" x1="776.5" x2="776.5" y1="118.5938" y2="1904.0469"/><text fill="#000000" font-family="sans-serif" font-size="14" lengthAdjust="spacing" textLength="32" x="219" y="115.292">User</text><ellipse cx="238" cy="50.7969" fill="#E2E2F0" rx="8" ry="8" style="stroke:#181818;stroke-width:0.5;"/><path d="M238,58.7969 L238,85.7969 M225,66.7969 L251,66.7969 M238,85.7969 L225,100.7969 M238,85.7969 L251,100.7969 " fill="none" style="stroke:#181818;stroke-width:0.5;"/><text fill="#000000" font-family="sans-serif" font-size="14" lengthAdjust="spacing" textLength="32" x="219" y="1916.042">User</text><ellipse cx="238" cy="1927.8438" fill="#E2E2F0" rx="8" ry="8" style="stroke:#181818;stroke-width:0.5;"/><path d="M238,1935.8438 L238,1962.8438 M225,1943.8438 L251,1943.8438 M238,1962.8438 L225,1977.8438 M238,1962.8438 L251,1977.8438 " fill="none" style="stroke:#181818;stroke-width:0.5;"/><rect fill="#E2E2F0" height="46.5938" rx="2.5" ry="2.5" style="stroke:#181818;stroke-width:0.5;" width="143" x="441.5" y="71"/><text fill="#000000" font-family="sans-serif" font-size="14" lengthAdjust="spacing" textLength="62" x="482" y="90.9951">REST API</text><text fill="#000000" font-family="sans-serif" font-size="14" lengthAdjust="spacing" textLength="129" x="448.5" y="107.292">FavoritesController</text><rect fill="#E2E2F0" height="46.5938" rx="2.5" ry="2.5" style="stroke:#181818;stroke-width:0.5;" width="143" x="441.5" y="1903.0469"/><text fill="#000000" font-family="sans-serif" font-size="14" lengthAdjust="spacing" textLength="62" x="482" y="1923.042">REST API</text><text fill="#000000" font-family="sans-serif" font-size="14" lengthAdjust="spacing" textLength="129" x="448.5" y="1939.3389">FavoritesController</text><text fill="#000000" font-family="sans-serif" font-size="14" lengthAdjust="spacing" textLength="81" x="733.5" y="115.292">PostgreSQL</text><path d="M759,66.2969 C759,56.2969 777,56.2969 777,56.2969 C777,56.2969 795,56.2969 795,66.2969 L795,92.2969 C795,102.2969 777,102.2969 777,102.2969 C777,102.2969 759,102.2969 759,92.2969 L759,66.2969 " fill="#E2E2F0" style="stroke:#181818;stroke-width:1.5;"/><path d="M759,66.2969 C759,76.2969 777,76.2969 777,76.2969 C777,76.2969 795,76.2969 795,66.2969 " fill="none" style="stroke:#181818;stroke-width:1.5;"/><text fill="#000000" font-family="sans-serif" font-size="14" lengthAdjust="spacing" textLength="81" x="733.5" y="1916.042">PostgreSQL</text><path d="M759,1929.3438 C759,1919.3438 777,1919.3438 777,1919.3438 C777,1919.3438 795,1919.3438 795,1929.3438 L795,1955.3438 C795,1965.3438 777,1965.3438 777,1965.3438 C777,1965.3438 759,1965.3438 759,1955.3438 L759,1929.3438 " fill="#E2E2F0" style="stroke:#181818;stroke-width:1.5;"/><path d="M759,1929.3438 C759,1939.3438 777,1939.3438 777,1939.3438 C777,1939.3438 795,1939.3438 795,1929.3438 " fill="none" style="stroke:#181818;stroke-width:1.5;"/><rect fill="#FFFFFF" height="607.3984" style="stroke:#181818;stroke-width:1.0;" width="10" x="508" y="388.9219"/><rect fill="#FFFFFF" height="431.7969" style="stroke:#181818;stroke-width:1.0;" width="10" x="508" y="1075.7188"/><rect fill="#FFFFFF" height="29.1328" style="stroke:#181818;stroke-width:1.0;" width="10" x="772" y="556.7188"/><rect fill="#FFFFFF" height="29.1328" style="stroke:#181818;stroke-width:1.0;" width="10" x="772" y="614.9844"/><rect fill="#FFFFFF" height="29.1328" style="stroke:#181818;stroke-width:1.0;" width="10" x="772" y="673.25"/><rect fill="#FFFFFF" height="29.1328" style="stroke:#181818;stroke-width:1.0;" width="10" x="772" y="790.5859"/><rect fill="#FFFFFF" height="29.1328" style="stroke:#181818;stroke-width:1.0;" width="10" x="772" y="907.9219"/><rect fill="#FFFFFF" height="29.1328" style="stroke:#181818;stroke-width:1.0;" width="10" x="772" y="1243.5156"/><rect fill="#FFFFFF" height="29.1328" style="stroke:#181818;stroke-width:1.0;" width="10" x="772" y="1301.7813"/><rect fill="#FFFFFF" height="29.1328" style="stroke:#181818;stroke-width:1.0;" width="10" x="772" y="1419.1172"/><path d="M209,133.5938 L209,188.5938 L805,188.5938 L805,143.5938 L795,133.5938 L209,133.5938 " fill="#FEFFDD" style="stroke:#181818;stroke-width:0.5;"/><path d="M795,133.5938 L795,143.5938 L805,143.5938 L795,133.5938 " fill="#FEFFDD" style="stroke:#181818;stroke-width:0.5;"/><text fill="#000000" font-family="sans-serif" font-size="13" lengthAdjust="spacing" textLength="365" x="320.25" y="150.6606">Ten flow dzia&#322;a po otrzymaniu produkt&#243;w z g&#322;&#243;wnego flow.</text><text fill="#000000" font-family="sans-serif" font-size="13" lengthAdjust="spacing" textLength="310" x="320.25" y="165.7935">U&#380;ytkownik ma list&#281; produkt&#243;w z ich database ID</text><text fill="#000000" font-family="sans-serif" font-size="13" lengthAdjust="spacing" textLength="256" x="320.25" y="180.9263">i mo&#380;e dodawa&#263;/usuwa&#263; je z ulubionych.</text><rect fill="#EEEEEE" height="3" style="stroke:#EEEEEE;stroke-width:1.0;" width="840.5" x="0" y="214.5586"/><line style="stroke:#000000;stroke-width:1.0;" x1="0" x2="840.5" y1="214.5586" y2="214.5586"/><line style="stroke:#000000;stroke-width:1.0;" x1="0" x2="840.5" y1="217.5586" y2="217.5586"/><rect fill="#EEEEEE" height="23.1328" style="stroke:#000000;stroke-width:2.0;" width="370" x="235.25" y="203.9922"/><text fill="#000000" font-family="sans-serif" font-size="13" font-weight="bold" lengthAdjust="spacing" textLength="351" x="241.25" y="220.0591">U&#380;ytkownik otrzyma&#322; produkty z g&#322;&#243;wnego flow</text><line style="stroke:#181818;stroke-width:1.0;" x1="238" x2="280" y1="273.3906" y2="273.3906"/><line style="stroke:#181818;stroke-width:1.0;" x1="280" x2="280" y1="273.3906" y2="286.3906"/><line style="stroke:#181818;stroke-width:1.0;" x1="239" x2="280" y1="286.3906" y2="286.3906"/><polygon fill="#181818" points="249,282.3906,239,286.3906,249,290.3906,245,286.3906" style="stroke:#181818;stroke-width:1.0;"/><text fill="#000000" font-family="sans-serif" font-size="13" lengthAdjust="spacing" textLength="161" x="245" y="253.1919">Wy&#347;wietla list&#281; produkt&#243;w</text><text fill="#000000" font-family="sans-serif" font-size="13" lengthAdjust="spacing" textLength="112" x="245" y="268.3247">z gift-ready event</text><rect fill="#EEEEEE" height="3" style="stroke:#EEEEEE;stroke-width:1.0;" width="840.5" x="0" y="314.957"/><line style="stroke:#000000;stroke-width:1.0;" x1="0" x2="840.5" y1="314.957" y2="314.957"/><line style="stroke:#000000;stroke-width:1.0;" x1="0" x2="840.5" y1="317.957" y2="317.957"/><rect fill="#EEEEEE" height="23.1328" style="stroke:#000000;stroke-width:2.0;" width="282" x="279.25" y="304.3906"/><text fill="#000000" font-family="sans-serif" font-size="13" font-weight="bold" lengthAdjust="spacing" textLength="263" x="285.25" y="320.4575">Dodawanie produktu do ulubionych</text><polygon fill="#181818" points="496,384.9219,506,388.9219,496,392.9219,500,388.9219" style="stroke:#181818;stroke-width:1.0;"/><line style="stroke:#181818;stroke-width:1.0;" x1="238" x2="502" y1="388.9219" y2="388.9219"/><text fill="#000000" font-family="sans-serif" font-size="13" lengthAdjust="spacing" textLength="97" x="245" y="353.5903">POST /favorites</text><text fill="#000000" font-family="sans-serif" font-size="13" lengthAdjust="spacing" textLength="64" x="245" y="368.7231">{listingId}</text><text fill="#000000" font-family="sans-serif" font-size="13" lengthAdjust="spacing" textLength="81" x="245" y="383.856">+ JWT cookie</text><line style="stroke:#181818;stroke-width:1.0;" x1="518" x2="560" y1="433.1875" y2="433.1875"/><line style="stroke:#181818;stroke-width:1.0;" x1="560" x2="560" y1="433.1875" y2="446.1875"/><line style="stroke:#181818;stroke-width:1.0;" x1="519" x2="560" y1="446.1875" y2="446.1875"/><polygon fill="#181818" points="529,442.1875,519,446.1875,529,450.1875,525,446.1875" style="stroke:#181818;stroke-width:1.0;"/><text fill="#000000" font-family="sans-serif" font-size="13" font-weight="bold" lengthAdjust="spacing" textLength="101" x="525" y="412.9888">JwtAuthGuard</text><text fill="#000000" font-family="sans-serif" font-size="13" lengthAdjust="spacing" textLength="223" x="525" y="428.1216">(weryfikacja tokena, extract userId)</text><line style="stroke:#181818;stroke-width:1.0;" x1="518" x2="560" y1="490.4531" y2="490.4531"/><line style="stroke:#181818;stroke-width:1.0;" x1="560" x2="560" y1="490.4531" y2="503.4531"/><line style="stroke:#181818;stroke-width:1.0;" x1="519" x2="560" y1="503.4531" y2="503.4531"/><polygon fill="#181818" points="529,499.4531,519,503.4531,529,507.4531,525,503.4531" style="stroke:#181818;stroke-width:1.0;"/><text fill="#000000" font-family="sans-serif" font-size="13" font-weight="bold" lengthAdjust="spacing" textLength="190" x="525" y="470.2544">AddToFavoritesCommand</text><text fill="#000000" font-family="sans-serif" font-size="13" lengthAdjust="spacing" textLength="111" x="525" y="485.3872">{userId, listingId}</text><path d="M10,518.4531 L74,518.4531 L74,525.5859 L64,535.5859 L10,535.5859 L10,518.4531 " fill="#EEEEEE" style="stroke:#000000;stroke-width:1.5;"/><rect fill="none" height="470.8672" style="stroke:#000000;stroke-width:1.5;" width="820.5" x="10" y="518.4531"/><text fill="#000000" font-family="sans-serif" font-size="13" font-weight="bold" lengthAdjust="spacing" textLength="19" x="25" y="531.52">alt</text><text fill="#000000" font-family="sans-serif" font-size="11" font-weight="bold" lengthAdjust="spacing" textLength="165" x="89" y="530.6636">[Produkt istnieje w bazie]</text><polygon fill="#181818" points="760,552.7188,770,556.7188,760,560.7188,764,556.7188" style="stroke:#181818;stroke-width:1.0;"/><line style="stroke:#181818;stroke-width:1.0;" x1="518" x2="766" y1="556.7188" y2="556.7188"/><text fill="#000000" font-family="sans-serif" font-size="13" lengthAdjust="spacing" textLength="122" x="525" y="551.6528">Znajd&#378; listing po ID</text><polygon fill="#181818" points="529,581.8516,519,585.8516,529,589.8516,525,585.8516" style="stroke:#181818;stroke-width:1.0;"/><line style="stroke:#181818;stroke-width:1.0;stroke-dasharray:2.0,2.0;" x1="523" x2="776" y1="585.8516" y2="585.8516"/><text fill="#000000" font-family="sans-serif" font-size="13" lengthAdjust="spacing" textLength="81" x="535" y="580.7856">Listing entity</text><polygon fill="#181818" points="760,610.9844,770,614.9844,760,618.9844,764,614.9844" style="stroke:#181818;stroke-width:1.0;"/><line style="stroke:#181818;stroke-width:1.0;" x1="518" x2="766" y1="614.9844" y2="614.9844"/><text fill="#000000" font-family="sans-serif" font-size="13" lengthAdjust="spacing" textLength="186" x="525" y="609.9185">Sprawd&#378; czy ju&#380; w ulubionych</text><polygon fill="#181818" points="529,640.1172,519,644.1172,529,648.1172,525,644.1172" style="stroke:#181818;stroke-width:1.0;"/><line style="stroke:#181818;stroke-width:1.0;stroke-dasharray:2.0,2.0;" x1="523" x2="776" y1="644.1172" y2="644.1172"/><text fill="#000000" font-family="sans-serif" font-size="13" lengthAdjust="spacing" textLength="83" x="535" y="639.0513">Not favorited</text><polygon fill="#181818" points="760,669.25,770,673.25,760,677.25,764,673.25" style="stroke:#181818;stroke-width:1.0;"/><line style="stroke:#181818;stroke-width:1.0;" x1="518" x2="766" y1="673.25" y2="673.25"/><text fill="#000000" font-family="sans-serif" font-size="13" lengthAdjust="spacing" textLength="230" x="525" y="668.1841">Dodaj listing do user.favoriteListings</text><polygon fill="#181818" points="529,698.3828,519,702.3828,529,706.3828,525,702.3828" style="stroke:#181818;stroke-width:1.0;"/><line style="stroke:#181818;stroke-width:1.0;stroke-dasharray:2.0,2.0;" x1="523" x2="776" y1="702.3828" y2="702.3828"/><text fill="#000000" font-family="sans-serif" font-size="13" lengthAdjust="spacing" textLength="53" x="535" y="697.3169">Success</text><polygon fill="#181818" points="249,742.6484,239,746.6484,249,750.6484,245,746.6484" style="stroke:#181818;stroke-width:1.0;"/><line style="stroke:#181818;stroke-width:1.0;stroke-dasharray:2.0,2.0;" x1="243" x2="507" y1="746.6484" y2="746.6484"/><text fill="#000000" font-family="sans-serif" font-size="13" lengthAdjust="spacing" textLength="79" x="255" y="726.4497">201 Created</text><text fill="#000000" font-family="sans-serif" font-size="13" lengthAdjust="spacing" textLength="210" x="255" y="741.5825">{message: "Added to favorites"}</text><path d="M20,719.9492 L20,744.9492 L233,744.9492 L233,729.9492 L223,719.9492 L20,719.9492 " fill="#FEFFDD" style="stroke:#181818;stroke-width:0.5;"/><path d="M223,719.9492 L223,729.9492 L233,729.9492 L223,719.9492 " fill="#FEFFDD" style="stroke:#181818;stroke-width:0.5;"/><text fill="#000000" font-family="sans-serif" font-size="13" lengthAdjust="spacing" textLength="192" x="26" y="737.0161">Produkt dodany do ulubionych</text><line style="stroke:#000000;stroke-width:1.0;stroke-dasharray:2.0,2.0;" x1="10" x2="830.5" y1="755.6484" y2="755.6484"/><text fill="#000000" font-family="sans-serif" font-size="11" font-weight="bold" lengthAdjust="spacing" textLength="135" x="15" y="765.8589">[Produkt nie istnieje]</text><polygon fill="#181818" points="760,786.5859,770,790.5859,760,794.5859,764,790.5859" style="stroke:#181818;stroke-width:1.0;"/><line style="stroke:#181818;stroke-width:1.0;" x1="518" x2="766" y1="790.5859" y2="790.5859"/><text fill="#000000" font-family="sans-serif" font-size="13" lengthAdjust="spacing" textLength="122" x="525" y="785.52">Znajd&#378; listing po ID</text><polygon fill="#181818" points="529,815.7188,519,819.7188,529,823.7188,525,819.7188" style="stroke:#181818;stroke-width:1.0;"/><line style="stroke:#181818;stroke-width:1.0;stroke-dasharray:2.0,2.0;" x1="523" x2="776" y1="819.7188" y2="819.7188"/><text fill="#000000" font-family="sans-serif" font-size="13" lengthAdjust="spacing" textLength="22" x="535" y="814.6528">null</text><polygon fill="#181818" points="249,859.9844,239,863.9844,249,867.9844,245,863.9844" style="stroke:#181818;stroke-width:1.0;"/><line style="stroke:#181818;stroke-width:1.0;stroke-dasharray:2.0,2.0;" x1="243" x2="507" y1="863.9844" y2="863.9844"/><text fill="#000000" font-family="sans-serif" font-size="13" lengthAdjust="spacing" textLength="94" x="255" y="843.7856">404 Not Found</text><text fill="#000000" font-family="sans-serif" font-size="13" lengthAdjust="spacing" textLength="199" x="255" y="858.9185">{message: "Listing not found"}</text><line style="stroke:#000000;stroke-width:1.0;stroke-dasharray:2.0,2.0;" x1="10" x2="830.5" y1="872.9844" y2="872.9844"/><text fill="#000000" font-family="sans-serif" font-size="11" font-weight="bold" lengthAdjust="spacing" textLength="118" x="15" y="883.1948">[Ju&#380; w ulubionych]</text><polygon fill="#181818" points="760,903.9219,770,907.9219,760,911.9219,764,907.9219" style="stroke:#181818;stroke-width:1.0;"/><line style="stroke:#181818;stroke-width:1.0;" x1="518" x2="766" y1="907.9219" y2="907.9219"/><text fill="#000000" font-family="sans-serif" font-size="13" lengthAdjust="spacing" textLength="186" x="525" y="902.856">Sprawd&#378; czy ju&#380; w ulubionych</text><polygon fill="#181818" points="529,933.0547,519,937.0547,529,941.0547,525,937.0547" style="stroke:#181818;stroke-width:1.0;"/><line style="stroke:#181818;stroke-width:1.0;stroke-dasharray:2.0,2.0;" x1="523" x2="776" y1="937.0547" y2="937.0547"/><text fill="#000000" font-family="sans-serif" font-size="13" lengthAdjust="spacing" textLength="108" x="535" y="931.9888">Already favorited</text><polygon fill="#181818" points="249,977.3203,239,981.3203,249,985.3203,245,981.3203" style="stroke:#181818;stroke-width:1.0;"/><line style="stroke:#181818;stroke-width:1.0;stroke-dasharray:2.0,2.0;" x1="243" x2="507" y1="981.3203" y2="981.3203"/><text fill="#000000" font-family="sans-serif" font-size="13" lengthAdjust="spacing" textLength="46" x="255" y="961.1216">200 OK</text><text fill="#000000" font-family="sans-serif" font-size="13" lengthAdjust="spacing" textLength="215" x="255" y="976.2544">{message: "Already in favorites"}</text><rect fill="#EEEEEE" height="3" style="stroke:#EEEEEE;stroke-width:1.0;" width="840.5" x="0" y="1016.8867"/><line style="stroke:#000000;stroke-width:1.0;" x1="0" x2="840.5" y1="1016.8867" y2="1016.8867"/><line style="stroke:#000000;stroke-width:1.0;" x1="0" x2="840.5" y1="1019.8867" y2="1019.8867"/><rect fill="#EEEEEE" height="23.1328" style="stroke:#000000;stroke-width:2.0;" width="259" x="290.75" y="1006.3203"/><text fill="#000000" font-family="sans-serif" font-size="13" font-weight="bold" lengthAdjust="spacing" textLength="240" x="296.75" y="1022.3872">Usuwanie produktu z ulubionych</text><polygon fill="#181818" points="496,1071.7188,506,1075.7188,496,1079.7188,500,1075.7188" style="stroke:#181818;stroke-width:1.0;"/><line style="stroke:#181818;stroke-width:1.0;" x1="238" x2="502" y1="1075.7188" y2="1075.7188"/><text fill="#000000" font-family="sans-serif" font-size="13" lengthAdjust="spacing" textLength="167" x="245" y="1055.52">DELETE /favorites/:listingId</text><text fill="#000000" font-family="sans-serif" font-size="13" lengthAdjust="spacing" textLength="81" x="245" y="1070.6528">+ JWT cookie</text><line style="stroke:#181818;stroke-width:1.0;" x1="518" x2="560" y1="1119.9844" y2="1119.9844"/><line style="stroke:#181818;stroke-width:1.0;" x1="560" x2="560" y1="1119.9844" y2="1132.9844"/><line style="stroke:#181818;stroke-width:1.0;" x1="519" x2="560" y1="1132.9844" y2="1132.9844"/><polygon fill="#181818" points="529,1128.9844,519,1132.9844,529,1136.9844,525,1132.9844" style="stroke:#181818;stroke-width:1.0;"/><text fill="#000000" font-family="sans-serif" font-size="13" font-weight="bold" lengthAdjust="spacing" textLength="101" x="525" y="1099.7856">JwtAuthGuard</text><text fill="#000000" font-family="sans-serif" font-size="13" lengthAdjust="spacing" textLength="223" x="525" y="1114.9185">(weryfikacja tokena, extract userId)</text><line style="stroke:#181818;stroke-width:1.0;" x1="518" x2="560" y1="1177.25" y2="1177.25"/><line style="stroke:#181818;stroke-width:1.0;" x1="560" x2="560" y1="1177.25" y2="1190.25"/><line style="stroke:#181818;stroke-width:1.0;" x1="519" x2="560" y1="1190.25" y2="1190.25"/><polygon fill="#181818" points="529,1186.25,519,1190.25,529,1194.25,525,1190.25" style="stroke:#181818;stroke-width:1.0;"/><text fill="#000000" font-family="sans-serif" font-size="13" font-weight="bold" lengthAdjust="spacing" textLength="240" x="525" y="1157.0513">RemoveFromFavoritesCommand</text><text fill="#000000" font-family="sans-serif" font-size="13" lengthAdjust="spacing" textLength="111" x="525" y="1172.1841">{userId, listingId}</text><path d="M12,1205.25 L76,1205.25 L76,1212.3828 L66,1222.3828 L12,1222.3828 L12,1205.25 " fill="#EEEEEE" style="stroke:#000000;stroke-width:1.5;"/><rect fill="none" height="295.2656" style="stroke:#000000;stroke-width:1.5;" width="818.5" x="12" y="1205.25"/><text fill="#000000" font-family="sans-serif" font-size="13" font-weight="bold" lengthAdjust="spacing" textLength="19" x="27" y="1218.3169">alt</text><text fill="#000000" font-family="sans-serif" font-size="11" font-weight="bold" lengthAdjust="spacing" textLength="148" x="91" y="1217.4604">[Produkt w ulubionych]</text><polygon fill="#181818" points="760,1239.5156,770,1243.5156,760,1247.5156,764,1243.5156" style="stroke:#181818;stroke-width:1.0;"/><line style="stroke:#181818;stroke-width:1.0;" x1="518" x2="766" y1="1243.5156" y2="1243.5156"/><text fill="#000000" font-family="sans-serif" font-size="13" lengthAdjust="spacing" textLength="187" x="525" y="1238.4497">Znajd&#378; user z favoriteListings</text><polygon fill="#181818" points="529,1268.6484,519,1272.6484,529,1276.6484,525,1272.6484" style="stroke:#181818;stroke-width:1.0;"/><line style="stroke:#181818;stroke-width:1.0;stroke-dasharray:2.0,2.0;" x1="523" x2="776" y1="1272.6484" y2="1272.6484"/><text fill="#000000" font-family="sans-serif" font-size="13" lengthAdjust="spacing" textLength="118" x="535" y="1267.5825">User with favorites</text><polygon fill="#181818" points="760,1297.7813,770,1301.7813,760,1305.7813,764,1301.7813" style="stroke:#181818;stroke-width:1.0;"/><line style="stroke:#181818;stroke-width:1.0;" x1="518" x2="766" y1="1301.7813" y2="1301.7813"/><text fill="#000000" font-family="sans-serif" font-size="13" lengthAdjust="spacing" textLength="217" x="525" y="1296.7153">Usu&#324; listing z user.favoriteListings</text><polygon fill="#181818" points="529,1326.9141,519,1330.9141,529,1334.9141,525,1330.9141" style="stroke:#181818;stroke-width:1.0;"/><line style="stroke:#181818;stroke-width:1.0;stroke-dasharray:2.0,2.0;" x1="523" x2="776" y1="1330.9141" y2="1330.9141"/><text fill="#000000" font-family="sans-serif" font-size="13" lengthAdjust="spacing" textLength="53" x="535" y="1325.8481">Success</text><polygon fill="#181818" points="249,1371.1797,239,1375.1797,249,1379.1797,245,1375.1797" style="stroke:#181818;stroke-width:1.0;"/><line style="stroke:#181818;stroke-width:1.0;stroke-dasharray:2.0,2.0;" x1="243" x2="507" y1="1375.1797" y2="1375.1797"/><text fill="#000000" font-family="sans-serif" font-size="13" lengthAdjust="spacing" textLength="46" x="255" y="1354.981">200 OK</text><text fill="#000000" font-family="sans-serif" font-size="13" lengthAdjust="spacing" textLength="246" x="255" y="1370.1138">{message: "Removed from favorites"}</text><path d="M22,1348.4805 L22,1373.4805 L233,1373.4805 L233,1358.4805 L223,1348.4805 L22,1348.4805 " fill="#FEFFDD" style="stroke:#181818;stroke-width:0.5;"/><path d="M223,1348.4805 L223,1358.4805 L233,1358.4805 L223,1348.4805 " fill="#FEFFDD" style="stroke:#181818;stroke-width:0.5;"/><text fill="#000000" font-family="sans-serif" font-size="13" lengthAdjust="spacing" textLength="190" x="28" y="1365.5474">Produkt usuni&#281;ty z ulubionych</text><line style="stroke:#000000;stroke-width:1.0;stroke-dasharray:2.0,2.0;" x1="12" x2="830.5" y1="1384.1797" y2="1384.1797"/><text fill="#000000" font-family="sans-serif" font-size="11" font-weight="bold" lengthAdjust="spacing" textLength="172" x="17" y="1394.3901">[Produkt nie w ulubionych]</text><polygon fill="#181818" points="760,1415.1172,770,1419.1172,760,1423.1172,764,1419.1172" style="stroke:#181818;stroke-width:1.0;"/><line style="stroke:#181818;stroke-width:1.0;" x1="518" x2="766" y1="1419.1172" y2="1419.1172"/><text fill="#000000" font-family="sans-serif" font-size="13" lengthAdjust="spacing" textLength="187" x="525" y="1414.0513">Znajd&#378; user z favoriteListings</text><polygon fill="#181818" points="529,1444.25,519,1448.25,529,1452.25,525,1448.25" style="stroke:#181818;stroke-width:1.0;"/><line style="stroke:#181818;stroke-width:1.0;stroke-dasharray:2.0,2.0;" x1="523" x2="776" y1="1448.25" y2="1448.25"/><text fill="#000000" font-family="sans-serif" font-size="13" lengthAdjust="spacing" textLength="159" x="535" y="1443.1841">User without this favorite</text><polygon fill="#181818" points="249,1488.5156,239,1492.5156,249,1496.5156,245,1492.5156" style="stroke:#181818;stroke-width:1.0;"/><line style="stroke:#181818;stroke-width:1.0;stroke-dasharray:2.0,2.0;" x1="243" x2="507" y1="1492.5156" y2="1492.5156"/><text fill="#000000" font-family="sans-serif" font-size="13" lengthAdjust="spacing" textLength="94" x="255" y="1472.3169">404 Not Found</text><text fill="#000000" font-family="sans-serif" font-size="13" lengthAdjust="spacing" textLength="190" x="255" y="1487.4497">{message: "Not in favorites"}</text><rect fill="#EEEEEE" height="3" style="stroke:#EEEEEE;stroke-width:1.0;" width="840.5" x="0" y="1528.082"/><line style="stroke:#000000;stroke-width:1.0;" x1="0" x2="840.5" y1="1528.082" y2="1528.082"/><line style="stroke:#000000;stroke-width:1.0;" x1="0" x2="840.5" y1="1531.082" y2="1531.082"/><rect fill="#EEEEEE" height="23.1328" style="stroke:#000000;stroke-width:2.0;" width="285" x="277.75" y="1517.5156"/><text fill="#000000" font-family="sans-serif" font-size="13" font-weight="bold" lengthAdjust="spacing" textLength="266" x="283.75" y="1533.5825">Prze&#322;&#261;czanie stanu (toggle favorite)</text><path d="M209,1555.6484 L209,1610.6484 L805,1610.6484 L805,1565.6484 L795,1555.6484 L209,1555.6484 " fill="#FEFFDD" style="stroke:#181818;stroke-width:0.5;"/><path d="M795,1555.6484 L795,1565.6484 L805,1565.6484 L795,1555.6484 " fill="#FEFFDD" style="stroke:#181818;stroke-width:0.5;"/><text fill="#000000" font-family="sans-serif" font-size="13" lengthAdjust="spacing" textLength="250" x="350.25" y="1572.7153">Frontend mo&#380;e implementowa&#263; toggle:</text><text fill="#000000" font-family="sans-serif" font-size="13" lengthAdjust="spacing" textLength="305" x="350.25" y="1587.8481">klikni&#281;cie ikony serca wywo&#322;uje POST lub DELETE</text><text fill="#000000" font-family="sans-serif" font-size="13" lengthAdjust="spacing" textLength="214" x="350.25" y="1602.981">w zale&#380;no&#347;ci od aktualnego stanu</text><line style="stroke:#181818;stroke-width:1.0;" x1="238" x2="280" y1="1652.3125" y2="1652.3125"/><line style="stroke:#181818;stroke-width:1.0;" x1="280" x2="280" y1="1652.3125" y2="1665.3125"/><line style="stroke:#181818;stroke-width:1.0;" x1="239" x2="280" y1="1665.3125" y2="1665.3125"/><polygon fill="#181818" points="249,1661.3125,239,1665.3125,249,1669.3125,245,1665.3125" style="stroke:#181818;stroke-width:1.0;"/><text fill="#000000" font-family="sans-serif" font-size="13" lengthAdjust="spacing" textLength="134" x="245" y="1632.1138">Klikni&#281;cie ikony serca</text><text fill="#000000" font-family="sans-serif" font-size="13" lengthAdjust="spacing" textLength="82" x="245" y="1647.2466">na produkcie</text><path d="M209,1680.3125 L273,1680.3125 L273,1687.4453 L263,1697.4453 L209,1697.4453 L209,1680.3125 " fill="#EEEEEE" style="stroke:#000000;stroke-width:1.5;"/><rect fill="none" height="206.7344" style="stroke:#000000;stroke-width:1.5;" width="621.5" x="209" y="1680.3125"/><text fill="#000000" font-family="sans-serif" font-size="13" font-weight="bold" lengthAdjust="spacing" textLength="19" x="224" y="1693.3794">alt</text><text fill="#000000" font-family="sans-serif" font-size="11" font-weight="bold" lengthAdjust="spacing" textLength="201" x="288" y="1692.5229">[Produkt NIE jest w ulubionych]</text><polygon fill="#181818" points="501,1714.5781,511,1718.5781,501,1722.5781,505,1718.5781" style="stroke:#181818;stroke-width:1.0;"/><line style="stroke:#181818;stroke-width:1.0;" x1="238" x2="507" y1="1718.5781" y2="1718.5781"/><text fill="#000000" font-family="sans-serif" font-size="13" lengthAdjust="spacing" textLength="165" x="245" y="1713.5122">POST /favorites {listingId}</text><polygon fill="#181818" points="765,1743.7109,775,1747.7109,765,1751.7109,769,1747.7109" style="stroke:#181818;stroke-width:1.0;"/><line style="stroke:#181818;stroke-width:1.0;" x1="513" x2="771" y1="1747.7109" y2="1747.7109"/><text fill="#000000" font-family="sans-serif" font-size="13" lengthAdjust="spacing" textLength="129" x="520" y="1742.645">Dodaj do ulubionych</text><polygon fill="#181818" points="249,1772.8438,239,1776.8438,249,1780.8438,245,1776.8438" style="stroke:#181818;stroke-width:1.0;"/><line style="stroke:#181818;stroke-width:1.0;stroke-dasharray:2.0,2.0;" x1="243" x2="512" y1="1776.8438" y2="1776.8438"/><text fill="#000000" font-family="sans-serif" font-size="13" lengthAdjust="spacing" textLength="168" x="255" y="1771.7778">Sukces (ikona wype&#322;niona)</text><line style="stroke:#000000;stroke-width:1.0;stroke-dasharray:2.0,2.0;" x1="209" x2="830.5" y1="1785.8438" y2="1785.8438"/><text fill="#000000" font-family="sans-serif" font-size="11" font-weight="bold" lengthAdjust="spacing" textLength="205" x="214" y="1796.0542">[Produkt JU&#379; JEST w ulubionych]</text><polygon fill="#181818" points="501,1816.7813,511,1820.7813,501,1824.7813,505,1820.7813" style="stroke:#181818;stroke-width:1.0;"/><line style="stroke:#181818;stroke-width:1.0;" x1="238" x2="507" y1="1820.7813" y2="1820.7813"/><text fill="#000000" font-family="sans-serif" font-size="13" lengthAdjust="spacing" textLength="167" x="245" y="1815.7153">DELETE /favorites/:listingId</text><polygon fill="#181818" points="765,1845.9141,775,1849.9141,765,1853.9141,769,1849.9141" style="stroke:#181818;stroke-width:1.0;"/><line style="stroke:#181818;stroke-width:1.0;" x1="513" x2="771" y1="1849.9141" y2="1849.9141"/><text fill="#000000" font-family="sans-serif" font-size="13" lengthAdjust="spacing" textLength="116" x="520" y="1844.8481">Usu&#324; z ulubionych</text><polygon fill="#181818" points="249,1875.0469,239,1879.0469,249,1883.0469,245,1879.0469" style="stroke:#181818;stroke-width:1.0;"/><line style="stroke:#181818;stroke-width:1.0;stroke-dasharray:2.0,2.0;" x1="243" x2="512" y1="1879.0469" y2="1879.0469"/><text fill="#000000" font-family="sans-serif" font-size="13" lengthAdjust="spacing" textLength="134" x="255" y="1873.981">Sukces (ikona pusta)</text><!--SRC=[lLRDRjiu4BxhAGO-9Md-MlHa80MSsbxO3Lgtjb5WuGiZqZOjYZGaCgeKz6BiOf-Xw6FihSsjqNljaBOKgtQS_kx9XiYP-JZVV3EZkHOC6XteHIncKaERIyeYE88skL8HrmnF53M-Zg4jLE9vnDSgWc6CbqWCGszE8irzFYTeN7lJwW-WqUkCP64UFrTIHqe85jMiWRtXKQB99OaPr7egrfE8zLzVkDFckUT9XK7L5VeV7jeF00CcOOp1WMQSv0i2SmLAHraQ4iaDp2t0G7_vDu4C9la2_qWsKSxa6Cs7-Ksg0vL87a18GF1OttweMd5_2YMeJXEDE8Ggls505IK9kVtdnCJ6_iACuNqZp2LNClMdnnwJ52ncppixgyHQGSmNHQnq4n-SdNb3E7e6mpgyJVEF2MTQRC4uacZAn_eeOeIcmAwGAnUmwV19pehB1Y6luIi3sCJNeVSA2JeP5-ICvBKDnUMaGz-Fv2FelXs0hrJ0cIMQNn7amb7cc2tT71nq4zqmUlg78H4zE1Z9lOH5wPW7n9yHq2fWaXm2UwSZT0C6gwL3zpUSD2WTgBLA2P5Gv-rwQN48T-YmyeHU5cEW0J_Zcv6B12v9XcW12kVDyphyAScCvfyASrimZjNoJQwkckTmLAAvM5t5n7ATuYbbrTjVXUZF8vBO67wMmipaDmZbBksxOxrK6WeEwCEXBCUpyYsMNipESU5W1JpU7R9lV9_5yQvWoofySleOdcEL8JBa8KGRCc5rg25NZ2Ap9V2uzXvDdLe56-jwoOsLZ4ohPUWn4RFoXYtNWi6VPquQ8RQyQ_rHJq-VkgItbP7LPnMqIqk9FSLNEQpTBPJ-AluROYdZNJLGvUGKNhseqh5omMM546n6tfed9rtNbsptgdI9xFucqMnTj0QjjJPnKYzr-FytYJSin6dGZbJuGvrY1uL5hLaNc8_l4vIRW0dNqxlyFwnaf27_gwpjx3SBUQDebgcaCCPaFgnZd7YIttvmOskNadzxXfNHeASyBkr_MEtswpSgfXTbB5_S_krdJZUn9jB0dbQJ2IvCXODzgvpDXGMBLMgx5ont21xE1Gjni2YtGInzrF5U87XWK-pRVXXW0W6Vx1D8qaJb2uFZpSrhpEvAasY3wmeHBB-HAl_eSr0K2CgP2BTIE9Hh6qcnMhpO7cWa9Lbr1D-AUKqsBpijN7NY3VtSlql0sYgnTO1L1qALiZuYG1Tx5fnz_nnpB_4csQ_MMtUOVuQkDRmVrwxsjLMFsRVYcXjCyBuhcVy0]--></g></svg>