<?xml version="1.0" encoding="us-ascii" standalone="no"?><svg xmlns="http://www.w3.org/2000/svg" xmlns:xlink="http://www.w3.org/1999/xlink" contentStyleType="text/css" height="783px" preserveAspectRatio="none" style="width:790px;height:783px;background:#FFFFFF;" version="1.1" viewBox="0 0 790 783" width="790px" zoomAndPan="magnify"><defs/><g><text fill="#000000" font-family="sans-serif" font-size="14" font-weight="bold" lengthAdjust="spacing" textLength="384" x="199" y="29.5332">Flow event&#243;w (hub-and-spoke, REST jako koordynator)</text><rect fill="none" height="276.1641" style="stroke:#000000;stroke-width:1.5;" width="691" x="10" y="316.9766"/><rect fill="none" height="213.4609" style="stroke:#000000;stroke-width:1.5;" width="671" x="20" y="372.6797"/><line style="stroke:#181818;stroke-width:0.5;stroke-dasharray:5.0,5.0;" x1="47" x2="47" y1="121.2188" y2="701.1953"/><line style="stroke:#181818;stroke-width:0.5;stroke-dasharray:5.0,5.0;" x1="234.5" x2="234.5" y1="121.2188" y2="701.1953"/><line style="stroke:#181818;stroke-width:0.5;stroke-dasharray:5.0,5.0;" x1="518" x2="518" y1="121.2188" y2="701.1953"/><line style="stroke:#181818;stroke-width:0.5;stroke-dasharray:5.0,5.0;" x1="633" x2="633" y1="121.2188" y2="701.1953"/><line style="stroke:#181818;stroke-width:0.5;stroke-dasharray:5.0,5.0;" x1="734" x2="734" y1="121.2188" y2="701.1953"/><text fill="#000000" font-family="sans-serif" font-size="14" lengthAdjust="spacing" textLength="29" x="30" y="118.1426">User</text><ellipse cx="47.5" cy="52.1094" fill="#E2E2F0" rx="8" ry="8" style="stroke:#181818;stroke-width:0.5;"/><path d="M47.5,60.1094 L47.5,87.1094 M34.5,68.1094 L60.5,68.1094 M47.5,87.1094 L34.5,102.1094 M47.5,87.1094 L60.5,102.1094 " fill="none" style="stroke:#181818;stroke-width:0.5;"/><text fill="#000000" font-family="sans-serif" font-size="14" lengthAdjust="spacing" textLength="29" x="30" y="714.7285">User</text><ellipse cx="47.5" cy="726.3047" fill="#E2E2F0" rx="8" ry="8" style="stroke:#181818;stroke-width:0.5;"/><path d="M47.5,734.3047 L47.5,761.3047 M34.5,742.3047 L60.5,742.3047 M47.5,761.3047 L34.5,776.3047 M47.5,761.3047 L60.5,776.3047 " fill="none" style="stroke:#181818;stroke-width:0.5;"/><rect fill="#E2E2F0" height="31.6094" rx="2.5" ry="2.5" style="stroke:#181818;stroke-width:0.5;" width="76" x="196.5" y="88.6094"/><text fill="#000000" font-family="sans-serif" font-size="14" lengthAdjust="spacing" textLength="62" x="203.5" y="110.1426">REST API</text><rect fill="#E2E2F0" height="31.6094" rx="2.5" ry="2.5" style="stroke:#181818;stroke-width:0.5;" width="76" x="196.5" y="700.1953"/><text fill="#000000" font-family="sans-serif" font-size="14" lengthAdjust="spacing" textLength="62" x="203.5" y="721.7285">REST API</text><rect fill="#E2E2F0" height="31.6094" rx="2.5" ry="2.5" style="stroke:#181818;stroke-width:0.5;" width="115" x="461" y="88.6094"/><text fill="#000000" font-family="sans-serif" font-size="14" lengthAdjust="spacing" textLength="101" x="468" y="110.1426">Stalking Service</text><rect fill="#E2E2F0" height="31.6094" rx="2.5" ry="2.5" style="stroke:#181818;stroke-width:0.5;" width="115" x="461" y="700.1953"/><text fill="#000000" font-family="sans-serif" font-size="14" lengthAdjust="spacing" textLength="101" x="468" y="721.7285">Stalking Service</text><rect fill="#E2E2F0" height="31.6094" rx="2.5" ry="2.5" style="stroke:#181818;stroke-width:0.5;" width="95" x="586" y="88.6094"/><text fill="#000000" font-family="sans-serif" font-size="14" lengthAdjust="spacing" textLength="81" x="593" y="110.1426">Chat Service</text><rect fill="#E2E2F0" height="31.6094" rx="2.5" ry="2.5" style="stroke:#181818;stroke-width:0.5;" width="95" x="586" y="700.1953"/><text fill="#000000" font-family="sans-serif" font-size="14" lengthAdjust="spacing" textLength="81" x="593" y="721.7285">Chat Service</text><rect fill="#E2E2F0" height="31.6094" rx="2.5" ry="2.5" style="stroke:#181818;stroke-width:0.5;" width="87" x="691" y="88.6094"/><text fill="#000000" font-family="sans-serif" font-size="14" lengthAdjust="spacing" textLength="73" x="698" y="110.1426">Gift Service</text><rect fill="#E2E2F0" height="31.6094" rx="2.5" ry="2.5" style="stroke:#181818;stroke-width:0.5;" width="87" x="691" y="700.1953"/><text fill="#000000" font-family="sans-serif" font-size="14" lengthAdjust="spacing" textLength="73" x="698" y="721.7285">Gift Service</text><rect fill="#EEEEEE" height="3" style="stroke:#EEEEEE;stroke-width:1.0;" width="783" x="0" y="152.3945"/><line style="stroke:#000000;stroke-width:1.0;" x1="0" x2="783" y1="152.3945" y2="152.3945"/><line style="stroke:#000000;stroke-width:1.0;" x1="0" x2="783" y1="155.3945" y2="155.3945"/><rect fill="#EEEEEE" height="24.3516" style="stroke:#000000;stroke-width:2.0;" width="80" x="351.5" y="141.2188"/><text fill="#000000" font-family="sans-serif" font-size="13" font-weight="bold" lengthAdjust="spacing" textLength="62" x="357.5" y="158.7139">Start sesji</text><polygon fill="#181818" points="222.5,193.9219,232.5,197.9219,222.5,201.9219,226.5,197.9219" style="stroke:#181818;stroke-width:1.0;"/><line style="stroke:#181818;stroke-width:1.0;" x1="47.5" x2="228.5" y1="197.9219" y2="197.9219"/><text fill="#000000" font-family="sans-serif" font-size="13" lengthAdjust="spacing" textLength="163" x="54.5" y="193.0654">start sesji + linki/preferencje</text><polygon fill="#181818" points="506.5,224.2734,516.5,228.2734,506.5,232.2734,510.5,228.2734" style="stroke:#181818;stroke-width:1.0;"/><line style="stroke:#181818;stroke-width:1.0;" x1="234.5" x2="512.5" y1="228.2734" y2="228.2734"/><text fill="#000000" font-family="sans-serif" font-size="13" lengthAdjust="spacing" textLength="145" x="241.5" y="223.417">stalking.requested {links}</text><polygon fill="#181818" points="245.5,254.625,235.5,258.625,245.5,262.625,241.5,258.625" style="stroke:#181818;stroke-width:1.0;"/><line style="stroke:#181818;stroke-width:1.0;stroke-dasharray:2.0,2.0;" x1="239.5" x2="517.5" y1="258.625" y2="258.625"/><text fill="#000000" font-family="sans-serif" font-size="13" lengthAdjust="spacing" textLength="176" x="251.5" y="253.7686">stalking.completed {keywords}</text><line style="stroke:#181818;stroke-width:1.0;" x1="234.5" x2="276.5" y1="288.9766" y2="288.9766"/><line style="stroke:#181818;stroke-width:1.0;" x1="276.5" x2="276.5" y1="288.9766" y2="301.9766"/><line style="stroke:#181818;stroke-width:1.0;" x1="235.5" x2="276.5" y1="301.9766" y2="301.9766"/><polygon fill="#181818" points="245.5,297.9766,235.5,301.9766,245.5,305.9766,241.5,301.9766" style="stroke:#181818;stroke-width:1.0;"/><text fill="#000000" font-family="sans-serif" font-size="13" lengthAdjust="spacing" textLength="270" x="241.5" y="284.1201">eval.context {context: preferences + keywords}</text><path d="M10,316.9766 L71,316.9766 L71,325.3281 L61,335.3281 L10,335.3281 L10,316.9766 " fill="#EEEEEE" style="stroke:#000000;stroke-width:1.5;"/><rect fill="none" height="276.1641" style="stroke:#000000;stroke-width:1.5;" width="691" x="10" y="316.9766"/><text fill="#000000" font-family="sans-serif" font-size="13" font-weight="bold" lengthAdjust="spacing" textLength="16" x="25" y="331.4717">alt</text><text fill="#000000" font-family="sans-serif" font-size="11" font-weight="bold" lengthAdjust="spacing" textLength="110" x="86" y="330.3955">[Brakuje kontekstu]</text><polygon fill="#181818" points="621.5,353.6797,631.5,357.6797,621.5,361.6797,625.5,357.6797" style="stroke:#181818;stroke-width:1.0;"/><line style="stroke:#181818;stroke-width:1.0;" x1="234.5" x2="627.5" y1="357.6797" y2="357.6797"/><text fill="#000000" font-family="sans-serif" font-size="13" lengthAdjust="spacing" textLength="322" x="241.5" y="352.8232">chat.ask.question {chat context: chat history + context}</text><path d="M20,372.6797 L93,372.6797 L93,381.0313 L83,391.0313 L20,391.0313 L20,372.6797 " fill="#EEEEEE" style="stroke:#000000;stroke-width:1.5;"/><rect fill="none" height="213.4609" style="stroke:#000000;stroke-width:1.5;" width="671" x="20" y="372.6797"/><text fill="#000000" font-family="sans-serif" font-size="13" font-weight="bold" lengthAdjust="spacing" textLength="28" x="35" y="387.1748">loop</text><text fill="#000000" font-family="sans-serif" font-size="11" font-weight="bold" lengthAdjust="spacing" textLength="120" x="108" y="386.0986">[Zbieranie kontekstu]</text><polygon fill="#181818" points="245.5,409.3828,235.5,413.3828,245.5,417.3828,241.5,413.3828" style="stroke:#181818;stroke-width:1.0;"/><line style="stroke:#181818;stroke-width:1.0;stroke-dasharray:2.0,2.0;" x1="239.5" x2="632.5" y1="413.3828" y2="413.3828"/><text fill="#000000" font-family="sans-serif" font-size="13" lengthAdjust="spacing" textLength="171" x="251.5" y="408.5264">chat.question.asked (pytanie)</text><polygon fill="#181818" points="58.5,439.7344,48.5,443.7344,58.5,447.7344,54.5,443.7344" style="stroke:#181818;stroke-width:1.0;"/><line style="stroke:#181818;stroke-width:1.0;" x1="52.5" x2="233.5" y1="443.7344" y2="443.7344"/><text fill="#000000" font-family="sans-serif" font-size="13" lengthAdjust="spacing" textLength="99" x="64.5" y="438.8779">Wy&#347;wietl pytanie</text><polygon fill="#181818" points="222.5,470.0859,232.5,474.0859,222.5,478.0859,226.5,474.0859" style="stroke:#181818;stroke-width:1.0;"/><line style="stroke:#181818;stroke-width:1.0;" x1="47.5" x2="228.5" y1="474.0859" y2="474.0859"/><text fill="#000000" font-family="sans-serif" font-size="13" lengthAdjust="spacing" textLength="140" x="54.5" y="469.2295">Odpowied&#378; u&#380;ytkownika</text><polygon fill="#181818" points="621.5,500.4375,631.5,504.4375,621.5,508.4375,625.5,504.4375" style="stroke:#181818;stroke-width:1.0;"/><line style="stroke:#181818;stroke-width:1.0;" x1="234.5" x2="627.5" y1="504.4375" y2="504.4375"/><text fill="#000000" font-family="sans-serif" font-size="13" lengthAdjust="spacing" textLength="186" x="241.5" y="499.5811">chat.user.answered (odpowied&#378;)</text><polygon fill="#181818" points="245.5,530.7891,235.5,534.7891,245.5,538.7891,241.5,534.7891" style="stroke:#181818;stroke-width:1.0;"/><line style="stroke:#181818;stroke-width:1.0;stroke-dasharray:2.0,2.0;" x1="239.5" x2="632.5" y1="534.7891" y2="534.7891"/><text fill="#000000" font-family="sans-serif" font-size="13" lengthAdjust="spacing" textLength="201" x="251.5" y="529.9326">chat.answer.processed {keywords}</text><line style="stroke:#181818;stroke-width:1.0;" x1="234.5" x2="276.5" y1="565.1406" y2="565.1406"/><line style="stroke:#181818;stroke-width:1.0;" x1="276.5" x2="276.5" y1="565.1406" y2="578.1406"/><line style="stroke:#181818;stroke-width:1.0;" x1="235.5" x2="276.5" y1="578.1406" y2="578.1406"/><polygon fill="#181818" points="245.5,574.1406,235.5,578.1406,245.5,582.1406,241.5,578.1406" style="stroke:#181818;stroke-width:1.0;"/><text fill="#000000" font-family="sans-serif" font-size="13" lengthAdjust="spacing" textLength="270" x="241.5" y="560.2842">eval.context {context: preferences + keywords}</text><polygon fill="#181818" points="722.5,618.4922,732.5,622.4922,722.5,626.4922,726.5,622.4922" style="stroke:#181818;stroke-width:1.0;"/><line style="stroke:#181818;stroke-width:1.0;" x1="234.5" x2="728.5" y1="622.4922" y2="622.4922"/><text fill="#000000" font-family="sans-serif" font-size="13" lengthAdjust="spacing" textLength="187" x="241.5" y="617.6357">gift.generate.requested {context}</text><polygon fill="#181818" points="245.5,648.8438,235.5,652.8438,245.5,656.8438,241.5,652.8438" style="stroke:#181818;stroke-width:1.0;"/><line style="stroke:#181818;stroke-width:1.0;stroke-dasharray:2.0,2.0;" x1="239.5" x2="733.5" y1="652.8438" y2="652.8438"/><text fill="#000000" font-family="sans-serif" font-size="13" lengthAdjust="spacing" textLength="128" x="251.5" y="647.9873">gift.ready {propozycje}</text><polygon fill="#181818" points="58.5,679.1953,48.5,683.1953,58.5,687.1953,54.5,683.1953" style="stroke:#181818;stroke-width:1.0;"/><line style="stroke:#181818;stroke-width:1.0;" x1="52.5" x2="233.5" y1="683.1953" y2="683.1953"/><text fill="#000000" font-family="sans-serif" font-size="13" lengthAdjust="spacing" textLength="120" x="64.5" y="678.3389">Wy&#347;wietl propozycje</text><!--SRC=[dPB1ZjCm48RlVehHdhQ2Xdka8fKLkwn00j5MIDoyoMphsjZ6dZI4ga_2Ot13t53VYx7RHWc22uUeIVtDFx__6L9a46wDQm5tQEdNznQkDyt3LDfw6htJ-1JUlrmiOIkr0-rSg3ihoOM94BBYNrX5320Zh8INWLIblBG4Lxbe_kx-AfsbZ_7nWgJHogvXWM6dAipOOZb_ythCtMmaZPYRL_C_fExKunYvkxzT2Z6R0JS9117ZLi5i9bOmVPwjb1079q_0AAlLCn_m4GFQQeiYksSwEyfuTbi4_DnW9AnXduhYGOYCm7GeVM8hzyaRpAp6hkNa4dvHFi6uauP1I_Y5O7z-AQ6tWf7j3Qgb8NWHf6wsoCDWMaTg1C15DQLJGiMX5JBg8fjLph9qoh7NpryR5Nb-7JSu_tzW8UESXuyF2eEqQjm3ilhWfhdDfKNgnrUzzXsboaakkDXQbV2XEtvh5PA1Cv61mKZUrjunK1z_G7FysP5shLLQZdG6rsjuxGffOyivSLlNLq_-QVL45puupZMEvpBiyb-Z0K1RY_Jq8qvxMCAQrxDOe-L42OSBrAUUk87NN11GrXtisQjtNpjUoOFuUvWz87u3]--></g></svg>