<svg xmlns="http://www.w3.org/2000/svg" xmlns:xlink="http://www.w3.org/1999/xlink" contentStyleType="text/css" data-diagram-type="CLASS" height="1099px" preserveAspectRatio="none" style="width:734px;height:1099px;background:#FFFFFF;" version="1.1" viewBox="0 0 734 1099" width="734px" zoomAndPan="magnify"><title>REST API Database - Entity Relationship Diagram</title><defs/><g><g class="title" data-source-line="2"><text fill="#000000" font-family="sans-serif" font-size="14" font-weight="bold" lengthAdjust="spacing" textLength="355.6533" x="182.5683" y="23.5352">REST API Database - Entity Relationship Diagram</text></g><!--class users--><g class="entity" data-entity="users" data-source-line="4" data-uid="ent0002" id="entity_users"><rect fill="#F1F1F1" height="179.9063" rx="2.5" ry="2.5" style="stroke:#181818;stroke-width:0.5;" width="193.4668" x="202.6" y="202.9483"/><ellipse cx="276.8383" cy="218.9483" fill="#ADD1B2" rx="11" ry="11" style="stroke:#181818;stroke-width:1;"/><path d="M280.4525,225.4483 L272.7328,225.4483 L272.7328,213.0552 L280.4525,213.0552 L280.4525,215.2134 L275.1815,215.2134 L275.1815,217.8863 L279.9545,217.8863 L279.9545,220.0445 L275.1815,220.0445 L275.1815,223.2901 L280.4525,223.2901 Z " fill="#000000"/><text fill="#000000" font-family="sans-serif" font-size="14" lengthAdjust="spacing" textLength="36.4902" x="297.3383" y="224.2393">users</text><line style="stroke:#181818;stroke-width:0.5;" x1="203.6" x2="395.0668" y1="234.9483" y2="234.9483"/><ellipse cx="213.6" cy="248.6924" fill="#000000" rx="3" ry="3" style="stroke:#000000;stroke-width:1;"/><text fill="#000000" font-family="sans-serif" font-size="14" lengthAdjust="spacing" textLength="60.0674" x="222.6" y="252.4834">id : UUID</text><line style="stroke:#181818;stroke-width:1;" x1="203.6" x2="395.0668" y1="259.4366" y2="259.4366"/><text fill="#000000" font-family="sans-serif" font-size="14" lengthAdjust="spacing" textLength="151.7988" x="208.6" y="276.9717">email : VARCHAR(255)</text><text fill="#000000" font-family="sans-serif" font-size="14" lengthAdjust="spacing" textLength="181.4668" x="208.6" y="293.46">google_id : VARCHAR(255)</text><text fill="#000000" font-family="sans-serif" font-size="14" lengthAdjust="spacing" textLength="152.3936" x="208.6" y="309.9483">name : VARCHAR(255)</text><text fill="#000000" font-family="sans-serif" font-size="14" lengthAdjust="spacing" textLength="136.999" x="208.6" y="326.4366">access_token : TEXT</text><text fill="#000000" font-family="sans-serif" font-size="14" lengthAdjust="spacing" textLength="140.8818" x="208.6" y="342.9248">refresh_token : TEXT</text><text fill="#000000" font-family="sans-serif" font-size="14" lengthAdjust="spacing" textLength="161.916" x="208.6" y="359.4131">created_at : TIMESTAMP</text><text fill="#000000" font-family="sans-serif" font-size="14" lengthAdjust="spacing" textLength="167.5283" x="208.6" y="375.9014">updated_at : TIMESTAMP</text></g><!--class chats--><g class="entity" data-entity="chats" data-source-line="16" data-uid="ent0003" id="entity_chats"><rect fill="#F1F1F1" height="146.9297" rx="2.5" ry="2.5" style="stroke:#181818;stroke-width:0.5;" width="200.2207" x="15.22" y="459.8583"/><ellipse cx="93.0984" cy="475.8583" fill="#ADD1B2" rx="11" ry="11" style="stroke:#181818;stroke-width:1;"/><path d="M96.7127,482.3583 L88.9929,482.3583 L88.9929,469.9652 L96.7127,469.9652 L96.7127,472.1234 L91.4417,472.1234 L91.4417,474.7963 L96.2146,474.7963 L96.2146,476.9545 L91.4417,476.9545 L91.4417,480.2001 L96.7127,480.2001 Z " fill="#000000"/><text fill="#000000" font-family="sans-serif" font-size="14" lengthAdjust="spacing" textLength="35.9639" x="113.5984" y="481.1493">chats</text><line style="stroke:#181818;stroke-width:0.5;" x1="16.22" x2="214.4407" y1="491.8583" y2="491.8583"/><ellipse cx="26.22" cy="505.6024" fill="#000000" rx="3" ry="3" style="stroke:#000000;stroke-width:1;"/><text fill="#000000" font-family="sans-serif" font-size="14" lengthAdjust="spacing" textLength="60.0674" x="35.22" y="509.3934">id : UUID</text><line style="stroke:#181818;stroke-width:1;" x1="16.22" x2="214.4407" y1="516.3466" y2="516.3466"/><text fill="#000000" font-family="sans-serif" font-size="14" lengthAdjust="spacing" textLength="96.4209" x="21.22" y="533.8817">user_id : UUID</text><text fill="#000000" font-family="sans-serif" font-size="14" lengthAdjust="spacing" textLength="163.7891" x="21.22" y="550.37">chat_id : VARCHAR(255)</text><text fill="#000000" font-family="sans-serif" font-size="14" lengthAdjust="spacing" textLength="188.2207" x="21.22" y="566.8583">chat_name : VARCHAR(255)</text><text fill="#000000" font-family="sans-serif" font-size="14" lengthAdjust="spacing" textLength="161.916" x="21.22" y="583.3466">created_at : TIMESTAMP</text><text fill="#000000" font-family="sans-serif" font-size="14" lengthAdjust="spacing" textLength="167.5283" x="21.22" y="599.8348">updated_at : TIMESTAMP</text></g><!--class messages--><g class="entity" data-entity="messages" data-source-line="26" data-uid="ent0004" id="entity_messages"><rect fill="#F1F1F1" height="130.4414" rx="2.5" ry="2.5" style="stroke:#181818;stroke-width:0.5;" width="173.916" x="28.38" y="756.4983"/><ellipse cx="77.8175" cy="772.4983" fill="#ADD1B2" rx="11" ry="11" style="stroke:#181818;stroke-width:1;"/><path d="M81.4318,778.9983 L73.712,778.9983 L73.712,766.6052 L81.4318,766.6052 L81.4318,768.7634 L76.1608,768.7634 L76.1608,771.4363 L80.9337,771.4363 L80.9337,773.5945 L76.1608,773.5945 L76.1608,776.8401 L81.4318,776.8401 Z " fill="#000000"/><text fill="#000000" font-family="sans-serif" font-size="14" lengthAdjust="spacing" textLength="66.541" x="98.3175" y="777.7893">messages</text><line style="stroke:#181818;stroke-width:0.5;" x1="29.38" x2="201.296" y1="788.4983" y2="788.4983"/><ellipse cx="39.38" cy="802.2424" fill="#000000" rx="3" ry="3" style="stroke:#000000;stroke-width:1;"/><text fill="#000000" font-family="sans-serif" font-size="14" lengthAdjust="spacing" textLength="60.0674" x="48.38" y="806.0334">id : UUID</text><line style="stroke:#181818;stroke-width:1;" x1="29.38" x2="201.296" y1="812.9866" y2="812.9866"/><text fill="#000000" font-family="sans-serif" font-size="14" lengthAdjust="spacing" textLength="95.8945" x="34.38" y="830.5217">chat_id : UUID</text><text fill="#000000" font-family="sans-serif" font-size="14" lengthAdjust="spacing" textLength="79.1533" x="34.38" y="847.01">role : ENUM</text><text fill="#000000" font-family="sans-serif" font-size="14" lengthAdjust="spacing" textLength="98.7656" x="34.38" y="863.4983">content : TEXT</text><text fill="#000000" font-family="sans-serif" font-size="14" lengthAdjust="spacing" textLength="161.916" x="34.38" y="879.9866">created_at : TIMESTAMP</text></g><!--class listings--><g class="entity" data-entity="listings" data-source-line="35" data-uid="ent0005" id="entity_listings"><rect fill="#F1F1F1" height="245.8594" rx="2.5" ry="2.5" style="stroke:#181818;stroke-width:0.5;" width="217.0986" x="451.78" y="698.7883"/><ellipse cx="531.5451" cy="714.7883" fill="#ADD1B2" rx="11" ry="11" style="stroke:#181818;stroke-width:1;"/><path d="M535.1594,721.2883 L527.4397,721.2883 L527.4397,708.8952 L535.1594,708.8952 L535.1594,711.0534 L529.8884,711.0534 L529.8884,713.7263 L534.6613,713.7263 L534.6613,715.8845 L529.8884,715.8845 L529.8884,719.1301 L535.1594,719.1301 Z " fill="#000000"/><text fill="#000000" font-family="sans-serif" font-size="14" lengthAdjust="spacing" textLength="49.0684" x="552.0451" y="720.0793">listings</text><line style="stroke:#181818;stroke-width:0.5;" x1="452.78" x2="667.8786" y1="730.7883" y2="730.7883"/><ellipse cx="462.78" cy="744.5324" fill="#000000" rx="3" ry="3" style="stroke:#000000;stroke-width:1;"/><text fill="#000000" font-family="sans-serif" font-size="14" lengthAdjust="spacing" textLength="60.0674" x="471.78" y="748.3234">id : UUID</text><line style="stroke:#181818;stroke-width:1;" x1="452.78" x2="667.8786" y1="755.2766" y2="755.2766"/><text fill="#000000" font-family="sans-serif" font-size="14" lengthAdjust="spacing" textLength="163.7891" x="457.78" y="772.8117">chat_id : VARCHAR(255)</text><text fill="#000000" font-family="sans-serif" font-size="14" lengthAdjust="spacing" textLength="156.4814" x="457.78" y="789.3">image : VARCHAR(500)</text><text fill="#000000" font-family="sans-serif" font-size="14" lengthAdjust="spacing" textLength="141.4697" x="457.78" y="805.7883">title : VARCHAR(500)</text><text fill="#000000" font-family="sans-serif" font-size="14" lengthAdjust="spacing" textLength="123.4229" x="457.78" y="822.2766">description : TEXT</text><text fill="#000000" font-family="sans-serif" font-size="14" lengthAdjust="spacing" textLength="148.9209" x="457.78" y="838.7648">link : VARCHAR(1000)</text><text fill="#000000" font-family="sans-serif" font-size="14" lengthAdjust="spacing" textLength="190.4287" x="457.78" y="855.2531">price_value : DECIMAL(10,2)</text><text fill="#000000" font-family="sans-serif" font-size="14" lengthAdjust="spacing" textLength="188.0977" x="457.78" y="871.7414">price_label : VARCHAR(100)</text><text fill="#000000" font-family="sans-serif" font-size="14" lengthAdjust="spacing" textLength="205.0986" x="457.78" y="888.2297">price_currency : VARCHAR(10)</text><text fill="#000000" font-family="sans-serif" font-size="14" lengthAdjust="spacing" textLength="190.1963" x="457.78" y="904.718">price_negotiable : BOOLEAN</text><text fill="#000000" font-family="sans-serif" font-size="14" lengthAdjust="spacing" textLength="161.916" x="457.78" y="921.2063">created_at : TIMESTAMP</text><text fill="#000000" font-family="sans-serif" font-size="14" lengthAdjust="spacing" textLength="167.5283" x="457.78" y="937.6945">updated_at : TIMESTAMP</text></g><!--class favorites--><g class="entity" data-entity="favorites" data-source-line="51" data-uid="ent0006" id="entity_favorites"><rect fill="#F1F1F1" height="97.4648" rx="2.5" ry="2.5" style="stroke:#181818;stroke-width:0.5;" width="175.958" x="508.35" y="44.4883"/><ellipse cx="523.35" cy="60.4883" fill="#ADD1B2" rx="11" ry="11" style="stroke:#181818;stroke-width:1;"/><path d="M526.9643,66.9883 L519.2445,66.9883 L519.2445,54.5952 L526.9643,54.5952 L526.9643,56.7534 L521.6933,56.7534 L521.6933,59.4263 L526.4662,59.4263 L526.4662,61.5845 L521.6933,61.5845 L521.6933,64.8301 L526.9643,64.8301 Z " fill="#000000"/><text fill="#000000" font-family="sans-serif" font-size="14" lengthAdjust="spacing" textLength="143.958" x="537.35" y="65.7793">user_favorite_listings</text><line style="stroke:#181818;stroke-width:0.5;" x1="509.35" x2="683.308" y1="76.4883" y2="76.4883"/><ellipse cx="519.35" cy="90.2324" fill="#000000" rx="3" ry="3" style="stroke:#000000;stroke-width:1;"/><text fill="#000000" font-family="sans-serif" font-size="14" lengthAdjust="spacing" textLength="96.4209" x="528.35" y="94.0234">user_id : UUID</text><ellipse cx="519.35" cy="106.7207" fill="#000000" rx="3" ry="3" style="stroke:#000000;stroke-width:1;"/><text fill="#000000" font-family="sans-serif" font-size="14" lengthAdjust="spacing" textLength="108.999" x="528.35" y="110.5117">listing_id : UUID</text><line style="stroke:#181818;stroke-width:1;" x1="509.35" x2="683.308" y1="117.4648" y2="117.4648"/><text fill="#000000" font-family="sans-serif" font-size="14" lengthAdjust="spacing" textLength="161.916" x="514.35" y="135">created_at : TIMESTAMP</text></g><g class="entity" data-entity="GMN13" data-source-line="66" data-uid="ent0014" id="entity_GMN13"><path d="M431.05,249.6283 L431.05,288.9083 L396.55,292.9083 L431.05,296.9083 L431.05,336.181 A0,0 0 0 0 431.05,336.181 L655.613,336.181 A0,0 0 0 0 655.613,336.181 L655.613,259.6283 L645.613,249.6283 L431.05,249.6283 A0,0 0 0 0 431.05,249.6283" fill="#FEFFDD" style="stroke:#181818;stroke-width:0.5;"/><path d="M645.613,249.6283 L645.613,259.6283 L655.613,259.6283 L645.613,249.6283" fill="#FEFFDD" style="stroke:#181818;stroke-width:0.5;"/><text fill="#000000" font-family="sans-serif" font-size="13" font-weight="bold" lengthAdjust="spacing" textLength="96.1416" x="437.05" y="267.1966">User Accounts</text><text fill="#000000" font-family="sans-serif" font-size="13" lengthAdjust="spacing" textLength="195.019" x="437.05" y="282.5072">- Google OAuth authentication</text><text fill="#000000" font-family="sans-serif" font-size="13" lengthAdjust="spacing" textLength="188.4873" x="437.05" y="297.8177">- Stores tokens for API access</text><text fill="#000000" font-family="sans-serif" font-size="13" lengthAdjust="spacing" textLength="203.563" x="437.05" y="313.1283">- One user can have many chats</text><text fill="#000000" font-family="sans-serif" font-size="13" lengthAdjust="spacing" textLength="193.4004" x="437.05" y="328.4388">- Can favorite multiple listings</text></g><g class="entity" data-entity="GMN16" data-source-line="74" data-uid="ent0017" id="entity_GMN16"><path d="M250.27,490.0483 L250.27,529.3183 L215.94,533.3183 L250.27,537.3183 L250.27,576.601 A0,0 0 0 0 250.27,576.601 L490.4038,576.601 A0,0 0 0 0 490.4038,576.601 L490.4038,500.0483 L480.4038,490.0483 L250.27,490.0483 A0,0 0 0 0 250.27,490.0483" fill="#FEFFDD" style="stroke:#181818;stroke-width:0.5;"/><path d="M480.4038,490.0483 L480.4038,500.0483 L490.4038,500.0483 L480.4038,490.0483" fill="#FEFFDD" style="stroke:#181818;stroke-width:0.5;"/><text fill="#000000" font-family="sans-serif" font-size="13" font-weight="bold" lengthAdjust="spacing" textLength="93.1582" x="256.27" y="507.6166">Chat Sessions</text><text fill="#000000" font-family="sans-serif" font-size="13" lengthAdjust="spacing" textLength="219.1338" x="256.27" y="522.9272">- Each chat is a gift search session</text><text fill="#000000" font-family="sans-serif" font-size="13" lengthAdjust="spacing" textLength="191.7373" x="256.27" y="538.2377">- chat_id is business identifier</text><text fill="#000000" font-family="sans-serif" font-size="13" lengthAdjust="spacing" textLength="134.4307" x="256.27" y="553.5483">- id is database UUID</text><text fill="#000000" font-family="sans-serif" font-size="13" lengthAdjust="spacing" textLength="193.8193" x="256.27" y="568.8588">- CASCADE DELETE from users</text></g><g class="entity" data-entity="GMN19" data-source-line="82" data-uid="ent0020" id="entity_GMN19"><path d="M6,1013.2983 L6,1084.5405 A0,0 0 0 0 6,1084.5405 L224.666,1084.5405 A0,0 0 0 0 224.666,1084.5405 L224.666,1023.2983 L214.666,1013.2983 L119.33,1013.2983 L115.33,887.2483 L111.33,1013.2983 L6,1013.2983 A0,0 0 0 0 6,1013.2983" fill="#FEFFDD" style="stroke:#181818;stroke-width:0.5;"/><path d="M214.666,1013.2983 L214.666,1023.2983 L224.666,1023.2983 L214.666,1013.2983" fill="#FEFFDD" style="stroke:#181818;stroke-width:0.5;"/><text fill="#000000" font-family="sans-serif" font-size="13" font-weight="bold" lengthAdjust="spacing" textLength="100.2993" x="12" y="1030.8666">Chat Messages</text><text fill="#000000" font-family="sans-serif" font-size="13" lengthAdjust="spacing" textLength="197.666" x="12" y="1046.1772">- role: user | assistant | system</text><text fill="#000000" font-family="sans-serif" font-size="13" lengthAdjust="spacing" textLength="193.3306" x="12" y="1061.4877">- CASCADE DELETE from chats</text><text fill="#000000" font-family="sans-serif" font-size="13" lengthAdjust="spacing" textLength="151.6519" x="12" y="1076.7983">- Ordered by created_at</text></g><g class="entity" data-entity="GMN22" data-source-line="89" data-uid="ent0023" id="entity_GMN22"><path d="M426.01,1005.6483 L426.01,1092.201 A0,0 0 0 0 426.01,1092.201 L694.6511,1092.201 A0,0 0 0 0 694.6511,1092.201 L694.6511,1015.6483 L684.6511,1005.6483 L564.33,1005.6483 L560.33,944.8783 L556.33,1005.6483 L426.01,1005.6483 A0,0 0 0 0 426.01,1005.6483" fill="#FEFFDD" style="stroke:#181818;stroke-width:0.5;"/><path d="M684.6511,1005.6483 L684.6511,1015.6483 L694.6511,1015.6483 L684.6511,1005.6483" fill="#FEFFDD" style="stroke:#181818;stroke-width:0.5;"/><text fill="#000000" font-family="sans-serif" font-size="13" font-weight="bold" lengthAdjust="spacing" textLength="178.9277" x="432.01" y="1023.2166">Product Recommendations</text><text fill="#000000" font-family="sans-serif" font-size="13" lengthAdjust="spacing" textLength="247.6411" x="432.01" y="1038.5272">- From multiple e-commerce providers</text><text fill="#000000" font-family="sans-serif" font-size="13" lengthAdjust="spacing" textLength="220.7588" x="432.01" y="1053.8377">- References chats.chat_id (not id!)</text><text fill="#000000" font-family="sans-serif" font-size="13" lengthAdjust="spacing" textLength="164.8486" x="432.01" y="1069.1483">- SET NULL if chat deleted</text><text fill="#000000" font-family="sans-serif" font-size="13" lengthAdjust="spacing" textLength="172.6499" x="432.01" y="1084.4588">- Can be favorited by users</text></g><g class="entity" data-entity="GMN25" data-source-line="97" data-uid="ent0026" id="entity_GMN25"><path d="M227.04,49.9383 L227.04,136.491 A0,0 0 0 0 227.04,136.491 L473.623,136.491 A0,0 0 0 0 473.623,136.491 L473.623,97.2183 L508.27,93.2183 L473.623,89.2183 L473.623,59.9383 L463.623,49.9383 L227.04,49.9383 A0,0 0 0 0 227.04,49.9383" fill="#FEFFDD" style="stroke:#181818;stroke-width:0.5;"/><path d="M463.623,49.9383 L463.623,59.9383 L473.623,59.9383 L463.623,49.9383" fill="#FEFFDD" style="stroke:#181818;stroke-width:0.5;"/><text fill="#000000" font-family="sans-serif" font-size="13" font-weight="bold" lengthAdjust="spacing" textLength="97.1255" x="233.04" y="67.5066">Junction Table</text><text fill="#000000" font-family="sans-serif" font-size="13" lengthAdjust="spacing" textLength="184.9199" x="233.04" y="82.8172">- Many-to-Many relationship</text><text fill="#000000" font-family="sans-serif" font-size="13" lengthAdjust="spacing" textLength="223.063" x="233.04" y="98.1277">- Composite PK (user_id, listing_id)</text><text fill="#000000" font-family="sans-serif" font-size="13" lengthAdjust="spacing" textLength="225.583" x="233.04" y="113.4383">- CASCADE DELETE from both sides</text><text fill="#000000" font-family="sans-serif" font-size="13" lengthAdjust="spacing" textLength="150.8965" x="233.04" y="128.7488">- Tracks when favorited</text></g><!--link users to chats--><g class="link" data-entity-1="users" data-entity-2="chats" data-source-line="58" data-uid="lnk7" id="link_users_chats"><path codeLine="58" d="M225.6714,389.3509 C206.1714,414.6109 201.069,421.2297 182.419,445.3897" fill="none" id="users-chats" style="stroke:#181818;stroke-width:1;"/><line style="stroke:#181818;stroke-width:1;" x1="224.9494" x2="231.282" y1="383.7403" y2="388.6289"/><line style="stroke:#181818;stroke-width:1;" x1="223.1162" x2="229.4488" y1="386.115" y2="391.0036"/><line style="stroke:#181818;stroke-width:1;" x1="225.6714" x2="230.56" y1="389.3509" y2="383.0183"/><line style="stroke:#181818;stroke-width:1;" x1="176.3084" x2="176.1695" y1="453.3056" y2="463.3046"/><line style="stroke:#181818;stroke-width:1;" x1="176.3084" x2="166.6705" y1="453.3056" y2="455.9719"/><line style="stroke:#181818;stroke-width:1;" x1="176.3084" x2="171.42" y1="453.3056" y2="459.6383"/><ellipse cx="179.9748" cy="448.5561" fill="none" rx="4" ry="4" style="stroke:#181818;stroke-width:1;"/><text fill="#000000" font-family="sans-serif" font-size="13" lengthAdjust="spacing" textLength="68.7959" x="208.33" y="426.4266">owns (1:M)</text></g><!--link chats to messages--><g class="link" data-entity-1="chats" data-entity-2="messages" data-source-line="59" data-uid="lnk8" id="link_chats_messages"><path codeLine="59" d="M115.33,614.9583 C115.33,661.0283 115.33,694.0883 115.33,738.4483" fill="none" id="chats-messages" style="stroke:#181818;stroke-width:1;"/><line style="stroke:#181818;stroke-width:1;" x1="111.33" x2="119.33" y1="610.9583" y2="610.9583"/><line style="stroke:#181818;stroke-width:1;" x1="111.33" x2="119.33" y1="613.9583" y2="613.9583"/><line style="stroke:#181818;stroke-width:1;" x1="115.33" x2="115.33" y1="614.9583" y2="606.9583"/><line style="stroke:#181818;stroke-width:1;" x1="115.33" x2="121.33" y1="748.4483" y2="756.4483"/><line style="stroke:#181818;stroke-width:1;" x1="115.33" x2="109.33" y1="748.4483" y2="756.4483"/><line style="stroke:#181818;stroke-width:1;" x1="115.33" x2="115.33" y1="748.4483" y2="756.4483"/><ellipse cx="115.33" cy="742.4483" fill="none" rx="4" ry="4" style="stroke:#181818;stroke-width:1;"/><text fill="#000000" font-family="sans-serif" font-size="13" lengthAdjust="spacing" textLength="89.3052" x="116.33" y="657.8566">contains (1:M)</text></g><!--link chats to listings--><g class="link" data-entity-1="chats" data-entity-2="listings" data-source-line="60" data-uid="lnk9" id="link_chats_listings"><path codeLine="60" d="M222.4773,603.2777 C292.5873,648.3977 364.2641,694.5263 436.1841,740.8163" fill="none" id="chats-listings" style="stroke:#181818;stroke-width:1;"/><line style="stroke:#181818;stroke-width:1;" x1="216.9489" x2="221.2783" y1="604.4766" y2="597.7493"/><line style="stroke:#181818;stroke-width:1;" x1="219.4717" x2="223.8011" y1="606.1001" y2="599.3729"/><line style="stroke:#181818;stroke-width:1;" x1="222.4773" x2="215.75" y1="603.2777" y2="598.9483"/><line style="stroke:#181818;stroke-width:1;" x1="444.5929" x2="454.5673" y1="746.2285" y2="745.513"/><line style="stroke:#181818;stroke-width:1;" x1="444.5929" x2="448.0727" y1="746.2285" y2="755.6036"/><line style="stroke:#181818;stroke-width:1;" x1="444.5929" x2="451.32" y1="746.2285" y2="750.5583"/><ellipse cx="439.5477" cy="742.9812" fill="none" rx="4" ry="4" style="stroke:#181818;stroke-width:1;"/><text fill="#000000" font-family="sans-serif" font-size="13" lengthAdjust="spacing" textLength="57.9731" x="316.6968" y="650.3566">has (1:M)</text><text fill="#000000" font-family="sans-serif" font-size="13" lengthAdjust="spacing" textLength="66.9868" x="312.19" y="665.6672">via chat_id</text></g><!--link users to listings--><g class="link" data-entity-1="users" data-entity-2="listings" data-source-line="61" data-uid="lnk10" id="link_users_listings"><path codeLine="61" d="M410.5392,380.8221 C464.2392,422.9721 506.41,456.5183 508.33,459.8583 C549.71,531.8983 561.7259,606.9284 564.1959,680.4884" fill="none" id="users-listings" style="stroke:#181818;stroke-width:1;"/><line style="stroke:#181818;stroke-width:1;" x1="402.673" x2="392.6754" y1="374.6477" y2="374.428"/><line style="stroke:#181818;stroke-width:1;" x1="402.673" x2="400.0846" y1="374.6477" y2="364.9885"/><line style="stroke:#181818;stroke-width:1;" x1="402.673" x2="396.38" y1="374.6477" y2="369.7083"/><ellipse cx="407.3927" cy="378.3523" fill="none" rx="4" ry="4" style="stroke:#181818;stroke-width:1;"/><line style="stroke:#181818;stroke-width:1;" x1="564.5315" x2="570.7966" y1="690.4828" y2="698.2769"/><line style="stroke:#181818;stroke-width:1;" x1="564.5315" x2="558.8034" y1="690.4828" y2="698.6796"/><line style="stroke:#181818;stroke-width:1;" x1="564.5315" x2="564.8" y1="690.4828" y2="698.4783"/><ellipse cx="564.3302" cy="684.4862" fill="none" rx="4" ry="4" style="stroke:#181818;stroke-width:1;"/><text fill="#000000" font-family="sans-serif" font-size="13" lengthAdjust="spacing" textLength="93.5581" x="557.05" y="538.3866">favorites (M:M)</text></g><!--link favorites to users--><g class="link" data-entity-1="favorites" data-entity-2="users" data-source-line="62" data-uid="lnk11" id="link_favorites_users"><path codeLine="62" d="M494.6676,151.4576 C463.5976,169.6076 444.15,181.8983 413.33,202.9483 C407.74,206.7783 408.5351,206.0939 402.8451,210.2039" fill="none" id="favorites-users" style="stroke:#181818;stroke-width:1;"/><line style="stroke:#181818;stroke-width:1;" x1="503.3023" x2="507.1836" y1="146.4135" y2="137.1975"/><line style="stroke:#181818;stroke-width:1;" x1="503.3023" x2="513.2364" y1="146.4135" y2="147.5591"/><line style="stroke:#181818;stroke-width:1;" x1="503.3023" x2="510.21" y1="146.4135" y2="142.3783"/><ellipse cx="498.1215" cy="149.44" fill="none" rx="4" ry="4" style="stroke:#181818;stroke-width:1;"/><line style="stroke:#181818;stroke-width:1;" x1="401.9447" x2="397.2604" y1="215.7887" y2="209.3035"/><line style="stroke:#181818;stroke-width:1;" x1="404.3767" x2="399.6923" y1="214.032" y2="207.5469"/><line style="stroke:#181818;stroke-width:1;" x1="402.8451" x2="396.36" y1="210.2039" y2="214.8883"/></g><!--link favorites to listings--><g class="link" data-entity-1="favorites" data-entity-2="listings" data-source-line="63" data-uid="lnk12" id="link_favorites_listings"><path codeLine="63" d="M650.8898,156.7659 C664.2598,174.5159 666.42,181.2383 673.33,202.9483 C727.79,374.0883 703.4,432.6883 659.33,606.7883 C651.57,637.4383 642.7518,661.7679 629.6518,690.9979" fill="none" id="favorites-listings" style="stroke:#181818;stroke-width:1;"/><line style="stroke:#181818;stroke-width:1;" x1="644.8732" x2="635.2675" y1="148.7783" y2="145.9982"/><line style="stroke:#181818;stroke-width:1;" x1="644.8732" x2="644.8525" y1="148.7783" y2="138.7784"/><line style="stroke:#181818;stroke-width:1;" x1="644.8732" x2="640.06" y1="148.7783" y2="142.3883"/><ellipse cx="648.4832" cy="153.5709" fill="none" rx="4" ry="4" style="stroke:#181818;stroke-width:1;"/><line style="stroke:#181818;stroke-width:1;" x1="631.6661" x2="624.3657" y1="696.284" y2="693.0122"/><line style="stroke:#181818;stroke-width:1;" x1="632.893" x2="625.5926" y1="693.5464" y2="690.2746"/><line style="stroke:#181818;stroke-width:1;" x1="629.6518" x2="626.38" y1="690.9979" y2="698.2983"/></g><!--SRC=[fLLDRnen4BtpAwQS08KgYPHBRblOjhGG41zL3vMGyGvWPTT6jfS8XVptZkrTbl2X77A1tPctdZVFpsChR8emZYTJY4Ozw3BB5imWj26MLjWTZ35bLYXfrc83NS5MccMr6ePaFJUeJHsO0Vy4hpM0baZW4MQpNfTUsctwmOo9b69_ed7dPpHkt3yyD2cyKcgLujp3JrAIPNWUPPoZCNEhdb5ITXh_dL9KurAZMP-6kKPcCPapwsAz0RKO3KQKo3V9fSHRrHLVCnkwyazNkd8Tpu-Z3don6v-utD8dM6Qa1LjX85g-NE5QKIkYMgMEJVmq6xYqafQM_L2ye-gfC5R8LQXUldnO_QHxaH7de_33xQqBMs_Ait22XcknSMwicAP2FXz1xsu3TgC5n_cMfRbRg1jtUeEeJzcR-ogRiWMcxx-jaZpN6YNVlSjNQOahPGLRU9xVXiD-73rzRZkzdPPigxImnErOtZ9Qw7jcl5Q1dfyhVtKVmtdTxzjjzLhO_17gwaKQQDmz3fhrMWWMY8E_2EJSmiGLuC4A15op0lDFRWKhRL0lQh-fim-gHXi3ltGLSEZzFeoPyt2vIAqcbKNGOhMse9O5d1HgpUW98ivLBgrfjPn0yCCF81X6kLq3en-t5zoFEv-VM4MJ1VnWeLrGsi_8C8KyO2ZHbm3E9ApP5Y5ZSXVaz80EnKkoaEMf5HigU62BCW57-9HskK2hrQ4dc50zDu8BsZ7ZQmy1OO31IYmj66IQeYOWFQmyTGHQv4P8Ie58N8jBWTf3GZOfXtxf7EX4aqxKZUdSzEDf34kjiaBA4yOBPItbY79fa8hre8WKhDt4UGngxSdKXZHWD7BsO7R6OdQrRYNcK2UeCO75xiZNrnaTL7QCHbebERTqdN6LPVHDkDGARjzTeSFsODjZD4Swx6fBckb0O8nBT4C1YulXQobnWqgJc5-QmJRn59vc_Jw8i9Cqk58ajWT7BF1W2j_DHMbJN7el7Bpk-_YLI-u7uDJDdeB-W4pNjghj_kawh2xiK55b6sMS0KU_eL4CZnkePaRpglOa9dcA10ZzJpNZpmPUw9nK3LIy_mC0]--></g></svg>