<?xml version="1.0" encoding="us-ascii" standalone="no"?><svg xmlns="http://www.w3.org/2000/svg" xmlns:xlink="http://www.w3.org/1999/xlink" contentStyleType="text/css" height="842px" preserveAspectRatio="none" style="width:800px;height:842px;background:#FFFFFF;" version="1.1" viewBox="0 0 800 842" width="800px" zoomAndPan="magnify"><defs/><g><text fill="#000000" font-family="sans-serif" font-size="14" font-weight="bold" lengthAdjust="spacing" textLength="384" x="204" y="29.5332">Flow event&#243;w (hub-and-spoke, REST jako koordynator)</text><rect fill="none" height="348.3516" style="stroke:#000000;stroke-width:1.5;" width="701" x="10" y="303.9766"/><rect fill="none" height="183.1094" style="stroke:#000000;stroke-width:1.5;" width="681" x="20" y="359.6797"/><line style="stroke:#181818;stroke-width:0.5;stroke-dasharray:5.0,5.0;" x1="47" x2="47" y1="121.2188" y2="760.3828"/><line style="stroke:#181818;stroke-width:0.5;stroke-dasharray:5.0,5.0;" x1="234.5" x2="234.5" y1="121.2188" y2="760.3828"/><line style="stroke:#181818;stroke-width:0.5;stroke-dasharray:5.0,5.0;" x1="528" x2="528" y1="121.2188" y2="760.3828"/><line style="stroke:#181818;stroke-width:0.5;stroke-dasharray:5.0,5.0;" x1="643" x2="643" y1="121.2188" y2="760.3828"/><line style="stroke:#181818;stroke-width:0.5;stroke-dasharray:5.0,5.0;" x1="744" x2="744" y1="121.2188" y2="760.3828"/><text fill="#000000" font-family="sans-serif" font-size="14" lengthAdjust="spacing" textLength="29" x="30" y="118.1426">User</text><ellipse cx="47.5" cy="52.1094" fill="#E2E2F0" rx="8" ry="8" style="stroke:#181818;stroke-width:0.5;"/><path d="M47.5,60.1094 L47.5,87.1094 M34.5,68.1094 L60.5,68.1094 M47.5,87.1094 L34.5,102.1094 M47.5,87.1094 L60.5,102.1094 " fill="none" style="stroke:#181818;stroke-width:0.5;"/><text fill="#000000" font-family="sans-serif" font-size="14" lengthAdjust="spacing" textLength="29" x="30" y="773.916">User</text><ellipse cx="47.5" cy="785.4922" fill="#E2E2F0" rx="8" ry="8" style="stroke:#181818;stroke-width:0.5;"/><path d="M47.5,793.4922 L47.5,820.4922 M34.5,801.4922 L60.5,801.4922 M47.5,820.4922 L34.5,835.4922 M47.5,820.4922 L60.5,835.4922 " fill="none" style="stroke:#181818;stroke-width:0.5;"/><rect fill="#E2E2F0" height="31.6094" rx="2.5" ry="2.5" style="stroke:#181818;stroke-width:0.5;" width="76" x="196.5" y="88.6094"/><text fill="#000000" font-family="sans-serif" font-size="14" lengthAdjust="spacing" textLength="62" x="203.5" y="110.1426">REST API</text><rect fill="#E2E2F0" height="31.6094" rx="2.5" ry="2.5" style="stroke:#181818;stroke-width:0.5;" width="76" x="196.5" y="759.3828"/><text fill="#000000" font-family="sans-serif" font-size="14" lengthAdjust="spacing" textLength="62" x="203.5" y="780.916">REST API</text><rect fill="#E2E2F0" height="31.6094" rx="2.5" ry="2.5" style="stroke:#181818;stroke-width:0.5;" width="115" x="471" y="88.6094"/><text fill="#000000" font-family="sans-serif" font-size="14" lengthAdjust="spacing" textLength="101" x="478" y="110.1426">Stalking Service</text><rect fill="#E2E2F0" height="31.6094" rx="2.5" ry="2.5" style="stroke:#181818;stroke-width:0.5;" width="115" x="471" y="759.3828"/><text fill="#000000" font-family="sans-serif" font-size="14" lengthAdjust="spacing" textLength="101" x="478" y="780.916">Stalking Service</text><rect fill="#E2E2F0" height="31.6094" rx="2.5" ry="2.5" style="stroke:#181818;stroke-width:0.5;" width="95" x="596" y="88.6094"/><text fill="#000000" font-family="sans-serif" font-size="14" lengthAdjust="spacing" textLength="81" x="603" y="110.1426">Chat Service</text><rect fill="#E2E2F0" height="31.6094" rx="2.5" ry="2.5" style="stroke:#181818;stroke-width:0.5;" width="95" x="596" y="759.3828"/><text fill="#000000" font-family="sans-serif" font-size="14" lengthAdjust="spacing" textLength="81" x="603" y="780.916">Chat Service</text><rect fill="#E2E2F0" height="31.6094" rx="2.5" ry="2.5" style="stroke:#181818;stroke-width:0.5;" width="87" x="701" y="88.6094"/><text fill="#000000" font-family="sans-serif" font-size="14" lengthAdjust="spacing" textLength="73" x="708" y="110.1426">Gift Service</text><rect fill="#E2E2F0" height="31.6094" rx="2.5" ry="2.5" style="stroke:#181818;stroke-width:0.5;" width="87" x="701" y="759.3828"/><text fill="#000000" font-family="sans-serif" font-size="14" lengthAdjust="spacing" textLength="73" x="708" y="780.916">Gift Service</text><rect fill="#EEEEEE" height="3" style="stroke:#EEEEEE;stroke-width:1.0;" width="793" x="0" y="152.3945"/><line style="stroke:#000000;stroke-width:1.0;" x1="0" x2="793" y1="152.3945" y2="152.3945"/><line style="stroke:#000000;stroke-width:1.0;" x1="0" x2="793" y1="155.3945" y2="155.3945"/><rect fill="#EEEEEE" height="24.3516" style="stroke:#000000;stroke-width:2.0;" width="80" x="356.5" y="141.2188"/><text fill="#000000" font-family="sans-serif" font-size="13" font-weight="bold" lengthAdjust="spacing" textLength="62" x="362.5" y="158.7139">Start sesji</text><polygon fill="#181818" points="222.5,193.9219,232.5,197.9219,222.5,201.9219,226.5,197.9219" style="stroke:#181818;stroke-width:1.0;"/><line style="stroke:#181818;stroke-width:1.0;" x1="47.5" x2="228.5" y1="197.9219" y2="197.9219"/><text fill="#000000" font-family="sans-serif" font-size="13" lengthAdjust="spacing" textLength="163" x="54.5" y="193.0654">start sesji + linki/preferencje</text><polygon fill="#181818" points="516.5,224.2734,526.5,228.2734,516.5,232.2734,520.5,228.2734" style="stroke:#181818;stroke-width:1.0;"/><line style="stroke:#181818;stroke-width:1.0;" x1="234.5" x2="522.5" y1="228.2734" y2="228.2734"/><text fill="#000000" font-family="sans-serif" font-size="13" lengthAdjust="spacing" textLength="92" x="241.5" y="223.417">session.created</text><polygon fill="#181818" points="516.5,254.625,526.5,258.625,516.5,262.625,520.5,258.625" style="stroke:#181818;stroke-width:1.0;"/><line style="stroke:#181818;stroke-width:1.0;" x1="234.5" x2="522.5" y1="258.625" y2="258.625"/><text fill="#000000" font-family="sans-serif" font-size="13" lengthAdjust="spacing" textLength="106" x="241.5" y="253.7686">analyze.requested</text><polygon fill="#181818" points="245.5,284.9766,235.5,288.9766,245.5,292.9766,241.5,288.9766" style="stroke:#181818;stroke-width:1.0;"/><line style="stroke:#181818;stroke-width:1.0;stroke-dasharray:2.0,2.0;" x1="239.5" x2="527.5" y1="288.9766" y2="288.9766"/><text fill="#000000" font-family="sans-serif" font-size="13" lengthAdjust="spacing" textLength="234" x="251.5" y="284.1201">stalking.completed {keywords, evidence}</text><path d="M10,303.9766 L71,303.9766 L71,312.3281 L61,322.3281 L10,322.3281 L10,303.9766 " fill="#EEEEEE" style="stroke:#000000;stroke-width:1.5;"/><rect fill="none" height="348.3516" style="stroke:#000000;stroke-width:1.5;" width="701" x="10" y="303.9766"/><text fill="#000000" font-family="sans-serif" font-size="13" font-weight="bold" lengthAdjust="spacing" textLength="16" x="25" y="318.4717">alt</text><text fill="#000000" font-family="sans-serif" font-size="11" font-weight="bold" lengthAdjust="spacing" textLength="187" x="86" y="317.3955">[Brakuje kontekstu (REST ocenia)]</text><polygon fill="#181818" points="631.5,340.6797,641.5,344.6797,631.5,348.6797,635.5,344.6797" style="stroke:#181818;stroke-width:1.0;"/><line style="stroke:#181818;stroke-width:1.0;" x1="234.5" x2="637.5" y1="344.6797" y2="344.6797"/><text fill="#000000" font-family="sans-serif" font-size="13" lengthAdjust="spacing" textLength="118" x="241.5" y="339.8232">chat.session.started</text><path d="M20,359.6797 L93,359.6797 L93,368.0313 L83,378.0313 L20,378.0313 L20,359.6797 " fill="#EEEEEE" style="stroke:#000000;stroke-width:1.5;"/><rect fill="none" height="183.1094" style="stroke:#000000;stroke-width:1.5;" width="681" x="20" y="359.6797"/><text fill="#000000" font-family="sans-serif" font-size="13" font-weight="bold" lengthAdjust="spacing" textLength="28" x="35" y="374.1748">loop</text><text fill="#000000" font-family="sans-serif" font-size="11" font-weight="bold" lengthAdjust="spacing" textLength="104" x="108" y="373.0986">[Dialog o kontekst]</text><polygon fill="#181818" points="245.5,396.3828,235.5,400.3828,245.5,404.3828,241.5,400.3828" style="stroke:#181818;stroke-width:1.0;"/><line style="stroke:#181818;stroke-width:1.0;stroke-dasharray:2.0,2.0;" x1="239.5" x2="642.5" y1="400.3828" y2="400.3828"/><text fill="#000000" font-family="sans-serif" font-size="13" lengthAdjust="spacing" textLength="171" x="251.5" y="395.5264">chat.question.asked (pytanie)</text><polygon fill="#181818" points="58.5,426.7344,48.5,430.7344,58.5,434.7344,54.5,430.7344" style="stroke:#181818;stroke-width:1.0;"/><line style="stroke:#181818;stroke-width:1.0;" x1="52.5" x2="233.5" y1="430.7344" y2="430.7344"/><text fill="#000000" font-family="sans-serif" font-size="13" lengthAdjust="spacing" textLength="99" x="64.5" y="425.8779">Wy&#347;wietl pytanie</text><polygon fill="#181818" points="222.5,457.0859,232.5,461.0859,222.5,465.0859,226.5,461.0859" style="stroke:#181818;stroke-width:1.0;"/><line style="stroke:#181818;stroke-width:1.0;" x1="47.5" x2="228.5" y1="461.0859" y2="461.0859"/><text fill="#000000" font-family="sans-serif" font-size="13" lengthAdjust="spacing" textLength="140" x="54.5" y="456.2295">Odpowied&#378; u&#380;ytkownika</text><polygon fill="#181818" points="631.5,487.4375,641.5,491.4375,631.5,495.4375,635.5,491.4375" style="stroke:#181818;stroke-width:1.0;"/><line style="stroke:#181818;stroke-width:1.0;" x1="234.5" x2="637.5" y1="491.4375" y2="491.4375"/><text fill="#000000" font-family="sans-serif" font-size="13" lengthAdjust="spacing" textLength="186" x="241.5" y="486.5811">chat.user.answered (odpowied&#378;)</text><line style="stroke:#181818;stroke-width:1.0;stroke-dasharray:2.0,2.0;" x1="234.5" x2="276.5" y1="521.7891" y2="521.7891"/><line style="stroke:#181818;stroke-width:1.0;stroke-dasharray:2.0,2.0;" x1="276.5" x2="276.5" y1="521.7891" y2="534.7891"/><line style="stroke:#181818;stroke-width:1.0;stroke-dasharray:2.0,2.0;" x1="235.5" x2="276.5" y1="534.7891" y2="534.7891"/><polygon fill="#181818" points="245.5,530.7891,235.5,534.7891,245.5,538.7891,241.5,534.7891" style="stroke:#181818;stroke-width:1.0;"/><text fill="#000000" font-family="sans-serif" font-size="13" lengthAdjust="spacing" textLength="170" x="241.5" y="516.9326">chat.context.ready {kontekst}</text><line style="stroke:#181818;stroke-width:1.0;" x1="234.5" x2="276.5" y1="572.1406" y2="572.1406"/><line style="stroke:#181818;stroke-width:1.0;" x1="276.5" x2="276.5" y1="572.1406" y2="585.1406"/><line style="stroke:#181818;stroke-width:1.0;" x1="235.5" x2="276.5" y1="585.1406" y2="585.1406"/><polygon fill="#181818" points="245.5,581.1406,235.5,585.1406,245.5,589.1406,241.5,585.1406" style="stroke:#181818;stroke-width:1.0;"/><text fill="#000000" font-family="sans-serif" font-size="13" lengthAdjust="spacing" textLength="280" x="241.5" y="567.2842">context.updated {preferencje + keywords + chat}</text><line style="stroke:#000000;stroke-width:1.0;stroke-dasharray:2.0,2.0;" x1="10" x2="711" y1="594.1406" y2="594.1406"/><text fill="#000000" font-family="sans-serif" font-size="11" font-weight="bold" lengthAdjust="spacing" textLength="95" x="15" y="605.5596">[Kontekstu do&#347;&#263;]</text><line style="stroke:#181818;stroke-width:1.0;" x1="234.5" x2="276.5" y1="631.3281" y2="631.3281"/><line style="stroke:#181818;stroke-width:1.0;" x1="276.5" x2="276.5" y1="631.3281" y2="644.3281"/><line style="stroke:#181818;stroke-width:1.0;" x1="235.5" x2="276.5" y1="644.3281" y2="644.3281"/><polygon fill="#181818" points="245.5,640.3281,235.5,644.3281,245.5,648.3281,241.5,644.3281" style="stroke:#181818;stroke-width:1.0;"/><text fill="#000000" font-family="sans-serif" font-size="13" lengthAdjust="spacing" textLength="239" x="241.5" y="626.4717">context.updated {preferencje + keywords}</text><polygon fill="#181818" points="732.5,677.6797,742.5,681.6797,732.5,685.6797,736.5,681.6797" style="stroke:#181818;stroke-width:1.0;"/><line style="stroke:#181818;stroke-width:1.0;" x1="234.5" x2="738.5" y1="681.6797" y2="681.6797"/><text fill="#000000" font-family="sans-serif" font-size="13" lengthAdjust="spacing" textLength="194" x="241.5" y="676.8232">gift.generate.requested {kontekst}</text><polygon fill="#181818" points="245.5,708.0313,235.5,712.0313,245.5,716.0313,241.5,712.0313" style="stroke:#181818;stroke-width:1.0;"/><line style="stroke:#181818;stroke-width:1.0;stroke-dasharray:2.0,2.0;" x1="239.5" x2="743.5" y1="712.0313" y2="712.0313"/><text fill="#000000" font-family="sans-serif" font-size="13" lengthAdjust="spacing" textLength="128" x="251.5" y="707.1748">gift.ready {propozycje}</text><polygon fill="#181818" points="58.5,738.3828,48.5,742.3828,58.5,746.3828,54.5,742.3828" style="stroke:#181818;stroke-width:1.0;"/><line style="stroke:#181818;stroke-width:1.0;" x1="52.5" x2="233.5" y1="742.3828" y2="742.3828"/><text fill="#000000" font-family="sans-serif" font-size="13" lengthAdjust="spacing" textLength="120" x="64.5" y="737.5264">Wy&#347;wietl propozycje</text><!--SRC=[dLBDRXCn4BxxAKOz9Q9PxYi5ARIqL4K2aKISXzrfwjZOnlPssQASUOW-1ZVK6-Iz65kRTBVYn2aRpVVDz-E9Ccg22srRe3ioyVVF5YQtpUSPcdeMd5Lq2X_VB5UmHML1MUlhpc2qVYe4LlmBwq0UCC1QEFHHLjAXYN2IIOiFLoTfblwCnyk8MacpWINvErbHXYrNYtVNOzpPBSOHvkpjujcgItapXbnUNQo4cC-1HNo4G64hOJuNQvYzobPA28F92z3IAFdIUReXJwRQaiZk6PqTbGaOf3L5vGaZrS_7Q51tzrHu-jfGI02H9p0R2kQyHMM_E4sCWU-AkfRx3ATSlQnPc7PSgexmsgDgjiHrcqWgn0OcMT5MP2HE1S31G6gZX8fBAWuUSpIs0A2jTN0kKTiDsECo7a3c3Tpb1Tbxse11iRs9wo8QITDCE0YkI_ZKxHzQIL53ZyY0GRdlQsSPKEz_GRD_xAAohP4AHti6nXi-e09DQBbybhL7zb1vRBLAMRv5BXphZelie-sOG2P57rJKqtf6ushCvGzUco_Wy1JycGHsWdGWk3xsNzlzmvyV_xkLrx6huzMa-onXmsTRRCYGP-hJwGpJ9E0WUcRqaPstpjvthBCJ_twR8q3y1G00]--></g></svg>