<?xml version="1.0" encoding="us-ascii" standalone="no"?><svg xmlns="http://www.w3.org/2000/svg" xmlns:xlink="http://www.w3.org/1999/xlink" contentStyleType="text/css" height="1092px" preserveAspectRatio="none" style="width:741px;height:1092px;background:#FFFFFF;" version="1.1" viewBox="0 0 741 1092" width="741px" zoomAndPan="magnify"><defs/><g><text fill="#000000" font-family="sans-serif" font-size="14" font-weight="bold" lengthAdjust="spacing" textLength="377" x="175.09" y="22.9951">REST API Database - Entity Relationship Diagram</text><!--class users--><g id="elem_users"><rect codeLine="4" fill="#F1F1F1" height="178.375" id="users" rx="2.5" ry="2.5" style="stroke:#181818;stroke-width:0.5;" width="196" x="201.5" y="202.2969"/><ellipse cx="275.75" cy="218.2969" fill="#ADD1B2" rx="11" ry="11" style="stroke:#181818;stroke-width:1.0;"/><path d="M279.8594,224.2969 L272.1406,224.2969 L272.1406,211.9063 L279.8594,211.9063 L279.8594,214.0625 L274.5938,214.0625 L274.5938,216.7344 L279.3594,216.7344 L279.3594,218.8906 L274.5938,218.8906 L274.5938,222.1406 L279.8594,222.1406 L279.8594,224.2969 Z " fill="#000000"/><text fill="#000000" font-family="sans-serif" font-size="14" lengthAdjust="spacing" textLength="39" x="296.25" y="223.1436">users</text><line style="stroke:#181818;stroke-width:0.5;" x1="202.5" x2="396.5" y1="234.2969" y2="234.2969"/><ellipse cx="212.5" cy="247.9453" fill="#000000" rx="3" ry="3" style="stroke:#000000;stroke-width:1.0;"/><text fill="#000000" font-family="sans-serif" font-size="14" lengthAdjust="spacing" textLength="59" x="221.5" y="251.292">id : UUID</text><line style="stroke:#181818;stroke-width:1.0;" x1="202.5" x2="396.5" y1="258.5938" y2="258.5938"/><text fill="#000000" font-family="sans-serif" font-size="14" lengthAdjust="spacing" textLength="153" x="207.5" y="275.5889">email : VARCHAR(255)</text><text fill="#000000" font-family="sans-serif" font-size="14" lengthAdjust="spacing" textLength="184" x="207.5" y="291.8857">google_id : VARCHAR(255)</text><text fill="#000000" font-family="sans-serif" font-size="14" lengthAdjust="spacing" textLength="156" x="207.5" y="308.1826">name : VARCHAR(255)</text><text fill="#000000" font-family="sans-serif" font-size="14" lengthAdjust="spacing" textLength="145" x="207.5" y="324.4795">access_token : TEXT</text><text fill="#000000" font-family="sans-serif" font-size="14" lengthAdjust="spacing" textLength="145" x="207.5" y="340.7764">refresh_token : TEXT</text><text fill="#000000" font-family="sans-serif" font-size="14" lengthAdjust="spacing" textLength="167" x="207.5" y="357.0732">created_at : TIMESTAMP</text><text fill="#000000" font-family="sans-serif" font-size="14" lengthAdjust="spacing" textLength="172" x="207.5" y="373.3701">updated_at : TIMESTAMP</text></g><!--class chats--><g id="elem_chats"><rect codeLine="16" fill="#F1F1F1" height="145.7813" id="chats" rx="2.5" ry="2.5" style="stroke:#181818;stroke-width:0.5;" width="205" x="13" y="457.2969"/><ellipse cx="92.25" cy="473.2969" fill="#ADD1B2" rx="11" ry="11" style="stroke:#181818;stroke-width:1.0;"/><path d="M96.3594,479.2969 L88.6406,479.2969 L88.6406,466.9063 L96.3594,466.9063 L96.3594,469.0625 L91.0938,469.0625 L91.0938,471.7344 L95.8594,471.7344 L95.8594,473.8906 L91.0938,473.8906 L91.0938,477.1406 L96.3594,477.1406 L96.3594,479.2969 Z " fill="#000000"/><text fill="#000000" font-family="sans-serif" font-size="14" lengthAdjust="spacing" textLength="38" x="112.75" y="478.1436">chats</text><line style="stroke:#181818;stroke-width:0.5;" x1="14" x2="217" y1="489.2969" y2="489.2969"/><ellipse cx="24" cy="502.9453" fill="#000000" rx="3" ry="3" style="stroke:#000000;stroke-width:1.0;"/><text fill="#000000" font-family="sans-serif" font-size="14" lengthAdjust="spacing" textLength="59" x="33" y="506.292">id : UUID</text><line style="stroke:#181818;stroke-width:1.0;" x1="14" x2="217" y1="513.5938" y2="513.5938"/><text fill="#000000" font-family="sans-serif" font-size="14" lengthAdjust="spacing" textLength="97" x="19" y="530.5889">user_id : UUID</text><text fill="#000000" font-family="sans-serif" font-size="14" lengthAdjust="spacing" textLength="166" x="19" y="546.8857">chat_id : VARCHAR(255)</text><text fill="#000000" font-family="sans-serif" font-size="14" lengthAdjust="spacing" textLength="193" x="19" y="563.1826">chat_name : VARCHAR(255)</text><text fill="#000000" font-family="sans-serif" font-size="14" lengthAdjust="spacing" textLength="167" x="19" y="579.4795">created_at : TIMESTAMP</text><text fill="#000000" font-family="sans-serif" font-size="14" lengthAdjust="spacing" textLength="172" x="19" y="595.7764">updated_at : TIMESTAMP</text></g><!--class messages--><g id="elem_messages"><rect codeLine="26" fill="#F1F1F1" height="129.4844" id="messages" rx="2.5" ry="2.5" style="stroke:#181818;stroke-width:0.5;" width="179" x="26" y="752.7969"/><ellipse cx="75.25" cy="768.7969" fill="#ADD1B2" rx="11" ry="11" style="stroke:#181818;stroke-width:1.0;"/><path d="M79.3594,774.7969 L71.6406,774.7969 L71.6406,762.4063 L79.3594,762.4063 L79.3594,764.5625 L74.0938,764.5625 L74.0938,767.2344 L78.8594,767.2344 L78.8594,769.3906 L74.0938,769.3906 L74.0938,772.6406 L79.3594,772.6406 L79.3594,774.7969 Z " fill="#000000"/><text fill="#000000" font-family="sans-serif" font-size="14" lengthAdjust="spacing" textLength="72" x="95.75" y="773.6436">messages</text><line style="stroke:#181818;stroke-width:0.5;" x1="27" x2="204" y1="784.7969" y2="784.7969"/><ellipse cx="37" cy="798.4453" fill="#000000" rx="3" ry="3" style="stroke:#000000;stroke-width:1.0;"/><text fill="#000000" font-family="sans-serif" font-size="14" lengthAdjust="spacing" textLength="59" x="46" y="801.792">id : UUID</text><line style="stroke:#181818;stroke-width:1.0;" x1="27" x2="204" y1="809.0938" y2="809.0938"/><text fill="#000000" font-family="sans-serif" font-size="14" lengthAdjust="spacing" textLength="96" x="32" y="826.0889">chat_id : UUID</text><text fill="#000000" font-family="sans-serif" font-size="14" lengthAdjust="spacing" textLength="80" x="32" y="842.3857">role : ENUM</text><text fill="#000000" font-family="sans-serif" font-size="14" lengthAdjust="spacing" textLength="103" x="32" y="858.6826">content : TEXT</text><text fill="#000000" font-family="sans-serif" font-size="14" lengthAdjust="spacing" textLength="167" x="32" y="874.9795">created_at : TIMESTAMP</text></g><!--class listings--><g id="elem_listings"><rect codeLine="35" fill="#F1F1F1" height="243.5625" id="listings" rx="2.5" ry="2.5" style="stroke:#181818;stroke-width:0.5;" width="221" x="455" y="695.2969"/><ellipse cx="537.25" cy="711.2969" fill="#ADD1B2" rx="11" ry="11" style="stroke:#181818;stroke-width:1.0;"/><path d="M541.3594,717.2969 L533.6406,717.2969 L533.6406,704.9063 L541.3594,704.9063 L541.3594,707.0625 L536.0938,707.0625 L536.0938,709.7344 L540.8594,709.7344 L540.8594,711.8906 L536.0938,711.8906 L536.0938,715.1406 L541.3594,715.1406 L541.3594,717.2969 Z " fill="#000000"/><text fill="#000000" font-family="sans-serif" font-size="14" lengthAdjust="spacing" textLength="48" x="557.75" y="716.1436">listings</text><line style="stroke:#181818;stroke-width:0.5;" x1="456" x2="675" y1="727.2969" y2="727.2969"/><ellipse cx="466" cy="740.9453" fill="#000000" rx="3" ry="3" style="stroke:#000000;stroke-width:1.0;"/><text fill="#000000" font-family="sans-serif" font-size="14" lengthAdjust="spacing" textLength="59" x="475" y="744.292">id : UUID</text><line style="stroke:#181818;stroke-width:1.0;" x1="456" x2="675" y1="751.5938" y2="751.5938"/><text fill="#000000" font-family="sans-serif" font-size="14" lengthAdjust="spacing" textLength="166" x="461" y="768.5889">chat_id : VARCHAR(255)</text><text fill="#000000" font-family="sans-serif" font-size="14" lengthAdjust="spacing" textLength="159" x="461" y="784.8857">image : VARCHAR(500)</text><text fill="#000000" font-family="sans-serif" font-size="14" lengthAdjust="spacing" textLength="142" x="461" y="801.1826">title : VARCHAR(500)</text><text fill="#000000" font-family="sans-serif" font-size="14" lengthAdjust="spacing" textLength="126" x="461" y="817.4795">description : TEXT</text><text fill="#000000" font-family="sans-serif" font-size="14" lengthAdjust="spacing" textLength="149" x="461" y="833.7764">link : VARCHAR(1000)</text><text fill="#000000" font-family="sans-serif" font-size="14" lengthAdjust="spacing" textLength="192" x="461" y="850.0732">price_value : DECIMAL(10,2)</text><text fill="#000000" font-family="sans-serif" font-size="14" lengthAdjust="spacing" textLength="190" x="461" y="866.3701">price_label : VARCHAR(100)</text><text fill="#000000" font-family="sans-serif" font-size="14" lengthAdjust="spacing" textLength="209" x="461" y="882.667">price_currency : VARCHAR(10)</text><text fill="#000000" font-family="sans-serif" font-size="14" lengthAdjust="spacing" textLength="194" x="461" y="898.9639">price_negotiable : BOOLEAN</text><text fill="#000000" font-family="sans-serif" font-size="14" lengthAdjust="spacing" textLength="167" x="461" y="915.2607">created_at : TIMESTAMP</text><text fill="#000000" font-family="sans-serif" font-size="14" lengthAdjust="spacing" textLength="172" x="461" y="931.5576">updated_at : TIMESTAMP</text></g><!--class favorites--><g id="elem_favorites"><rect codeLine="51" fill="#F1F1F1" height="96.8906" id="favorites" rx="2.5" ry="2.5" style="stroke:#181818;stroke-width:0.5;" width="179" x="512" y="44.2969"/><ellipse cx="528.8" cy="60.2969" fill="#ADD1B2" rx="11" ry="11" style="stroke:#181818;stroke-width:1.0;"/><path d="M532.9094,66.2969 L525.1906,66.2969 L525.1906,53.9063 L532.9094,53.9063 L532.9094,56.0625 L527.6438,56.0625 L527.6438,58.7344 L532.4094,58.7344 L532.4094,60.8906 L527.6438,60.8906 L527.6438,64.1406 L532.9094,64.1406 L532.9094,66.2969 Z " fill="#000000"/><text fill="#000000" font-family="sans-serif" font-size="14" lengthAdjust="spacing" textLength="143" x="543.2" y="65.1436">user_favorite_listings</text><line style="stroke:#181818;stroke-width:0.5;" x1="513" x2="690" y1="76.2969" y2="76.2969"/><ellipse cx="523" cy="89.9453" fill="#000000" rx="3" ry="3" style="stroke:#000000;stroke-width:1.0;"/><text fill="#000000" font-family="sans-serif" font-size="14" lengthAdjust="spacing" textLength="97" x="532" y="93.292">user_id : UUID</text><ellipse cx="523" cy="106.2422" fill="#000000" rx="3" ry="3" style="stroke:#000000;stroke-width:1.0;"/><text fill="#000000" font-family="sans-serif" font-size="14" lengthAdjust="spacing" textLength="106" x="532" y="109.5889">listing_id : UUID</text><line style="stroke:#181818;stroke-width:1.0;" x1="513" x2="690" y1="116.8906" y2="116.8906"/><text fill="#000000" font-family="sans-serif" font-size="14" lengthAdjust="spacing" textLength="167" x="518" y="133.8857">created_at : TIMESTAMP</text></g><g id="elem_GMN13"><path d="M433,248.2969 L433,287.2969 L397.83,291.2969 L433,295.2969 L433,333.9609 A0,0 0 0 0 433,333.9609 L662,333.9609 A0,0 0 0 0 662,333.9609 L662,258.2969 L652,248.2969 L433,248.2969 A0,0 0 0 0 433,248.2969 " fill="#FEFFDD" style="stroke:#181818;stroke-width:0.5;"/><path d="M652,248.2969 L652,258.2969 L662,258.2969 L652,248.2969 " fill="#FEFFDD" style="stroke:#181818;stroke-width:0.5;"/><text fill="#000000" font-family="sans-serif" font-size="13" font-weight="bold" lengthAdjust="spacing" textLength="105" x="439" y="265.3638">User Accounts</text><text fill="#000000" font-family="sans-serif" font-size="13" lengthAdjust="spacing" textLength="194" x="439" y="280.4966">- Google OAuth authentication</text><text fill="#000000" font-family="sans-serif" font-size="13" lengthAdjust="spacing" textLength="191" x="439" y="295.6294">- Stores tokens for API access</text><text fill="#000000" font-family="sans-serif" font-size="13" lengthAdjust="spacing" textLength="208" x="439" y="310.7622">- One user can have many chats</text><text fill="#000000" font-family="sans-serif" font-size="13" lengthAdjust="spacing" textLength="189" x="439" y="325.895">- Can favorite multiple listings</text></g><g id="elem_GMN16"><path d="M253.5,487.2969 L253.5,526.2969 L218.19,530.2969 L253.5,534.2969 L253.5,572.9609 A0,0 0 0 0 253.5,572.9609 L495.5,572.9609 A0,0 0 0 0 495.5,572.9609 L495.5,497.2969 L485.5,487.2969 L253.5,487.2969 A0,0 0 0 0 253.5,487.2969 " fill="#FEFFDD" style="stroke:#181818;stroke-width:0.5;"/><path d="M485.5,487.2969 L485.5,497.2969 L495.5,497.2969 L485.5,487.2969 " fill="#FEFFDD" style="stroke:#181818;stroke-width:0.5;"/><text fill="#000000" font-family="sans-serif" font-size="13" font-weight="bold" lengthAdjust="spacing" textLength="103" x="259.5" y="504.3638">Chat Sessions</text><text fill="#000000" font-family="sans-serif" font-size="13" lengthAdjust="spacing" textLength="221" x="259.5" y="519.4966">- Each chat is a gift search session</text><text fill="#000000" font-family="sans-serif" font-size="13" lengthAdjust="spacing" textLength="188" x="259.5" y="534.6294">- chat_id is business identifier</text><text fill="#000000" font-family="sans-serif" font-size="13" lengthAdjust="spacing" textLength="135" x="259.5" y="549.7622">- id is database UUID</text><text fill="#000000" font-family="sans-serif" font-size="13" lengthAdjust="spacing" textLength="197" x="259.5" y="564.895">- CASCADE DELETE from users</text></g><g id="elem_GMN19"><path d="M6,1007.7969 L6,1078.3281 A0,0 0 0 0 6,1078.3281 L225,1078.3281 A0,0 0 0 0 225,1078.3281 L225,1017.7969 L215,1007.7969 L119.5,1007.7969 L115.5,881.8869 L111.5,1007.7969 L6,1007.7969 A0,0 0 0 0 6,1007.7969 " fill="#FEFFDD" style="stroke:#181818;stroke-width:0.5;"/><path d="M215,1007.7969 L215,1017.7969 L225,1017.7969 L215,1007.7969 " fill="#FEFFDD" style="stroke:#181818;stroke-width:0.5;"/><text fill="#000000" font-family="sans-serif" font-size="13" font-weight="bold" lengthAdjust="spacing" textLength="113" x="12" y="1024.8638">Chat Messages</text><text fill="#000000" font-family="sans-serif" font-size="13" lengthAdjust="spacing" textLength="198" x="12" y="1039.9966">- role: user | assistant | system</text><text fill="#000000" font-family="sans-serif" font-size="13" lengthAdjust="spacing" textLength="197" x="12" y="1055.1294">- CASCADE DELETE from chats</text><text fill="#000000" font-family="sans-serif" font-size="13" lengthAdjust="spacing" textLength="153" x="12" y="1070.2622">- Ordered by created_at</text></g><g id="elem_GMN22"><path d="M432,1000.2969 L432,1085.9609 A0,0 0 0 0 432,1085.9609 L699,1085.9609 A0,0 0 0 0 699,1085.9609 L699,1010.2969 L689,1000.2969 L569.5,1000.2969 L565.5,939.4769 L561.5,1000.2969 L432,1000.2969 A0,0 0 0 0 432,1000.2969 " fill="#FEFFDD" style="stroke:#181818;stroke-width:0.5;"/><path d="M689,1000.2969 L689,1010.2969 L699,1010.2969 L689,1000.2969 " fill="#FEFFDD" style="stroke:#181818;stroke-width:0.5;"/><text fill="#000000" font-family="sans-serif" font-size="13" font-weight="bold" lengthAdjust="spacing" textLength="200" x="438" y="1017.3638">Product Recommendations</text><text fill="#000000" font-family="sans-serif" font-size="13" lengthAdjust="spacing" textLength="246" x="438" y="1032.4966">- From multiple e-commerce providers</text><text fill="#000000" font-family="sans-serif" font-size="13" lengthAdjust="spacing" textLength="224" x="438" y="1047.6294">- References chats.chat_id (not id!)</text><text fill="#000000" font-family="sans-serif" font-size="13" lengthAdjust="spacing" textLength="166" x="438" y="1062.7622">- SET NULL if chat deleted</text><text fill="#000000" font-family="sans-serif" font-size="13" lengthAdjust="spacing" textLength="172" x="438" y="1077.895">- Can be favorited by users</text></g><g id="elem_GMN25"><path d="M228,49.7969 L228,135.4609 A0,0 0 0 0 228,135.4609 L477,135.4609 A0,0 0 0 0 477,135.4609 L477,96.7969 L511.53,92.7969 L477,88.7969 L477,59.7969 L467,49.7969 L228,49.7969 A0,0 0 0 0 228,49.7969 " fill="#FEFFDD" style="stroke:#181818;stroke-width:0.5;"/><path d="M467,49.7969 L467,59.7969 L477,59.7969 L467,49.7969 " fill="#FEFFDD" style="stroke:#181818;stroke-width:0.5;"/><text fill="#000000" font-family="sans-serif" font-size="13" font-weight="bold" lengthAdjust="spacing" textLength="103" x="234" y="66.8638">Junction Table</text><text fill="#000000" font-family="sans-serif" font-size="13" lengthAdjust="spacing" textLength="178" x="234" y="81.9966">- Many-to-Many relationship</text><text fill="#000000" font-family="sans-serif" font-size="13" lengthAdjust="spacing" textLength="221" x="234" y="97.1294">- Composite PK (user_id, listing_id)</text><text fill="#000000" font-family="sans-serif" font-size="13" lengthAdjust="spacing" textLength="228" x="234" y="112.2622">- CASCADE DELETE from both sides</text><text fill="#000000" font-family="sans-serif" font-size="13" lengthAdjust="spacing" textLength="147" x="234" y="127.395">- Tracks when favorited</text></g><!--link users to chats--><g id="link_users_chats"><path codeLine="58" d="M226.0838,386.8659 C206.4638,412.1359 201.2538,418.8252 182.4938,443.0052 " fill="none" id="users-chats" style="stroke:#181818;stroke-width:1.0;"/><line style="stroke:#181818;stroke-width:1.0;" x1="225.3774" x2="231.6964" y1="381.2533" y2="386.1594"/><line style="stroke:#181818;stroke-width:1.0;" x1="223.5376" x2="229.8566" y1="383.6229" y2="388.5291"/><line style="stroke:#181818;stroke-width:1.0;" x1="226.0838" x2="230.99" y1="386.8659" y2="380.5469"/><line style="stroke:#181818;stroke-width:1.0;" x1="176.3639" x2="176.2005" y1="450.9062" y2="460.9048"/><line style="stroke:#181818;stroke-width:1.0;" x1="176.3639" x2="166.7195" y1="450.9062" y2="453.5489"/><line style="stroke:#181818;stroke-width:1.0;" x1="176.3639" x2="171.46" y1="450.9062" y2="457.2269"/><ellipse cx="180.0419" cy="446.1656" fill="none" rx="4" ry="4" style="stroke:#181818;stroke-width:1.0;"/><text fill="#000000" font-family="sans-serif" font-size="13" lengthAdjust="spacing" textLength="69" x="208.5" y="423.3638">owns (1:M)</text></g><!--link chats to messages--><g id="link_chats_messages"><path codeLine="59" d="M115.5,611.5869 C115.5,657.4269 115.5,690.1969 115.5,734.3469 " fill="none" id="chats-messages" style="stroke:#181818;stroke-width:1.0;"/><line style="stroke:#181818;stroke-width:1.0;" x1="111.5" x2="119.5" y1="607.5869" y2="607.5869"/><line style="stroke:#181818;stroke-width:1.0;" x1="111.5" x2="119.5" y1="610.5869" y2="610.5869"/><line style="stroke:#181818;stroke-width:1.0;" x1="115.5" x2="115.5" y1="611.5869" y2="603.5869"/><line style="stroke:#181818;stroke-width:1.0;" x1="115.5" x2="121.5" y1="744.3469" y2="752.3469"/><line style="stroke:#181818;stroke-width:1.0;" x1="115.5" x2="109.5" y1="744.3469" y2="752.3469"/><line style="stroke:#181818;stroke-width:1.0;" x1="115.5" x2="115.5" y1="744.3469" y2="752.3469"/><ellipse cx="115.5" cy="738.3469" fill="none" rx="4" ry="4" style="stroke:#181818;stroke-width:1.0;"/><text fill="#000000" font-family="sans-serif" font-size="13" lengthAdjust="spacing" textLength="91" x="116.5" y="653.8638">contains (1:M)</text></g><!--link chats to listings--><g id="link_chats_listings"><path codeLine="60" d="M224.9386,600.6072 C295.4886,645.2872 367.1438,690.6651 439.4038,736.4351 " fill="none" id="chats-listings" style="stroke:#181818;stroke-width:1.0;"/><line style="stroke:#181818;stroke-width:1.0;" x1="219.4192" x2="223.6995" y1="601.8463" y2="595.0877"/><line style="stroke:#181818;stroke-width:1.0;" x1="221.9536" x2="226.2339" y1="603.4515" y2="596.6928"/><line style="stroke:#181818;stroke-width:1.0;" x1="224.9386" x2="218.18" y1="600.6072" y2="596.3269"/><line style="stroke:#181818;stroke-width:1.0;" x1="447.8517" x2="457.8206" y1="741.7861" y2="740.9981"/><line style="stroke:#181818;stroke-width:1.0;" x1="447.8517" x2="451.3994" y1="741.7861" y2="751.1356"/><line style="stroke:#181818;stroke-width:1.0;" x1="447.8517" x2="454.61" y1="741.7861" y2="746.0669"/><ellipse cx="442.7829" cy="738.5755" fill="none" rx="4" ry="4" style="stroke:#181818;stroke-width:1.0;"/><text fill="#000000" font-family="sans-serif" font-size="13" lengthAdjust="spacing" textLength="60" x="332.5" y="646.3638">has (1:M)</text><text fill="#000000" font-family="sans-serif" font-size="13" lengthAdjust="spacing" textLength="68" x="328.5" y="661.4966">via chat_id</text></g><!--link users to listings--><g id="link_users_listings"><path codeLine="61" d="M411.9479,377.5954 C467.2979,419.7654 511.52,453.9069 513.5,457.2969 C555.29,528.7969 567.2934,603.5761 569.6434,676.8961 " fill="none" id="users-listings" style="stroke:#181818;stroke-width:1.0;"/><line style="stroke:#181818;stroke-width:1.0;" x1="403.9935" x2="393.9938" y1="371.5351" y2="371.4595"/><line style="stroke:#181818;stroke-width:1.0;" x1="403.9935" x2="401.2662" y1="371.5351" y2="361.9142"/><line style="stroke:#181818;stroke-width:1.0;" x1="403.9935" x2="397.63" y1="371.5351" y2="366.6869"/><ellipse cx="408.7662" cy="375.1713" fill="none" rx="4" ry="4" style="stroke:#181818;stroke-width:1.0;"/><line style="stroke:#181818;stroke-width:1.0;" x1="569.9637" x2="576.2169" y1="686.891" y2="694.6947"/><line style="stroke:#181818;stroke-width:1.0;" x1="569.9637" x2="564.2231" y1="686.891" y2="695.0791"/><line style="stroke:#181818;stroke-width:1.0;" x1="569.9637" x2="570.22" y1="686.891" y2="694.8869"/><ellipse cx="569.7715" cy="680.8941" fill="none" rx="4" ry="4" style="stroke:#181818;stroke-width:1.0;"/><text fill="#000000" font-family="sans-serif" font-size="13" lengthAdjust="spacing" textLength="95" x="562.5" y="534.8638">favorites (M:M)</text></g><!--link favorites to users--><g id="link_favorites_users"><path codeLine="62" d="M499.3761,150.3227 C467.5761,168.5627 447.22,181.1269 415.5,202.2969 C409.61,206.2269 410.1685,205.7373 404.1685,209.9673 " fill="none" id="favorites-users" style="stroke:#181818;stroke-width:1.0;"/><line style="stroke:#181818;stroke-width:1.0;" x1="508.0505" x2="512.0047" y1="145.3473" y2="136.1623"/><line style="stroke:#181818;stroke-width:1.0;" x1="508.0505" x2="517.9753" y1="145.3473" y2="146.5715"/><line style="stroke:#181818;stroke-width:1.0;" x1="508.0505" x2="514.99" y1="145.3473" y2="141.3669"/><ellipse cx="502.8459" cy="148.3326" fill="none" rx="4" ry="4" style="stroke:#181818;stroke-width:1.0;"/><line style="stroke:#181818;stroke-width:1.0;" x1="403.204" x2="398.5944" y1="215.5413" y2="209.0028"/><line style="stroke:#181818;stroke-width:1.0;" x1="405.656" x2="401.0463" y1="213.8127" y2="207.2742"/><line style="stroke:#181818;stroke-width:1.0;" x1="404.1685" x2="397.63" y1="209.9673" y2="214.5769"/></g><!--link favorites to listings--><g id="link_favorites_listings"><path codeLine="63" d="M656.5338,155.7802 C670.1538,173.5402 672.46,180.4369 679.5,202.2969 C734.18,372.0269 710.7,430.5469 666.5,603.2969 C658.61,634.1269 649.5433,658.609 636.0833,687.869 " fill="none" id="favorites-listings" style="stroke:#181818;stroke-width:1.0;"/><line style="stroke:#181818;stroke-width:1.0;" x1="650.4484" x2="640.8189" y1="147.845" y2="145.1481"/><line style="stroke:#181818;stroke-width:1.0;" x1="650.4484" x2="650.3411" y1="147.845" y2="137.8456"/><line style="stroke:#181818;stroke-width:1.0;" x1="650.4484" x2="645.58" y1="147.845" y2="141.4969"/><ellipse cx="654.0996" cy="152.6062" fill="none" rx="4" ry="4" style="stroke:#181818;stroke-width:1.0;"/><line style="stroke:#181818;stroke-width:1.0;" x1="638.0456" x2="630.7777" y1="693.1746" y2="689.8313"/><line style="stroke:#181818;stroke-width:1.0;" x1="639.2994" x2="632.0315" y1="690.4491" y2="687.1058"/><line style="stroke:#181818;stroke-width:1.0;" x1="636.0833" x2="632.74" y1="687.869" y2="695.1369"/></g><!--SRC=[fLLDRnen4BtpAwQS08KgYPHBRblOjhGG41zL3vMGyGvWPTT6jfS8XVptZkrTbl2X77A1tPctdZVFpsChR8emZYTJY4Ozw3BB5imWj26MLjWTZ35bLYXfrc83NS5MccMr6ePaFJUeJHsO0Vy4hpM0baZW4MQpNfTUsctwmOo9b69_ed7dPpHkt3yyD2cyKcgLujp3JrAIPNWUPPoZCNEhdb5ITXh_dL9KurAZMP-6kKPcCPapwsAz0RKO3KQKo3V9fSHRrHLVCnkwyazNkd8Tpu-Z3don6v-utD8dM6Qa1LjX85g-NE5QKIkYMgMEJVmq6xYqafQM_L2ye-gfC5R8LQXUldnO_QHxaH7de_33xQqBMs_Ait22XcknSMwicAP2FXz1xsu3TgC5n_cMfRbRg1jtUeEeJzcR-ogRiWMcxx-jaZpN6YNVlSjNQOahPGLRU9xVXiD-73rzRZkzdPPigxImnErOtZ9Qw7jcl5Q1dfyhVtKVmtdTxzjjzLhO_17gwaKQQDmz3fhrMWWMY8E_2EJSmiGLuC4A15op0lDFRWKhRL0lQh-fim-gHXi3ltGLSEZzFeoPyt2vIAqcbKNGOhMse9O5d1HgpUW98ivLBgrfjPn0yCCF81X6kLq3en-t5zoFEv-VM4MJ1VnWeLrGsi_8C8KyO2ZHbm3E9ApP5Y5ZSXVaz80EnKkoaEMf5HigU62BCW57-9HskK2hrQ4dc50zDu8BsZ7ZQmy1OO31IYmj66IQeYOWFQmyTGHQv4P8Ie58N8jBWTf3GZOfXtxf7EX4aqxKZUdSzEDf34kjiaBA4yOBPItbY79fa8hre8WKhDt4UGngxSdKXZHWD7BsO7R6OdQrRYNcK2UeCO75xiZNrnaTL7QCHbebERTqdN6LPVHDkDGARjzTeSFsODjZD4Swx6fBckb0O8nBT4C1YulXQobnWqgJc5-QmJRn59vc_Jw8i9Cqk58ajWT7BF1W2j_DHMbJN7el7Bpk-_YLI-u7uDJDdeB-W4pNjghj_kawh2xiK55b6sMS0KU_eL4CZnkePaRpglOa9dcA10ZzJpNZpmPUw9nK3LIy_mC0]--></g></svg>